<!--?xml version="1.0" standalone="no"?-->
              <svg id="sw-js-blob-svg" viewBox="0 0 100 100" xmlns="http://www.w3.org/2000/svg" version="1.1">
                    <defs> 
                        <linearGradient id="sw-gradient" x1="0" x2="1" y1="1" y2="0">
                            <stop id="stop1" stop-color="rgba(248, 117, 55, 1)" offset="0%"></stop>
                            <stop id="stop2" stop-color="rgba(236, 164, 0, 1)" offset="100%"></stop>
                        </linearGradient>
                    </defs>
                <path fill="url(#sw-gradient)" d="M25.8,-36C32.6,-30.5,36.7,-21.9,38.6,-13.2C40.5,-4.5,40.1,4.2,37.2,11.7C34.2,19.2,28.7,25.6,22.1,31C15.5,36.3,7.7,40.7,-0.5,41.4C-8.6,42,-17.3,38.9,-24.5,33.7C-31.7,28.5,-37.5,21.3,-40.6,12.9C-43.8,4.5,-44.2,-5,-41.6,-13.7C-39,-22.3,-33.3,-30.1,-25.8,-35.4C-18.4,-40.7,-9.2,-43.4,0.1,-43.6C9.5,-43.8,19,-41.5,25.8,-36Z" width="100%" height="100%" transform="translate(50 50)" stroke-width="0" style="transition: all 0.3s ease 0s;"></path>
              </svg>