<svg id="visual" viewBox="0 0 900 600" width="900" height="600" xmlns="http://www.w3.org/2000/svg" xmlns:xlink="http://www.w3.org/1999/xlink" version="1.1"><rect x="0" y="0" width="900" height="600" fill="#dce4eb"></rect><path d="M0 369L21.5 372.7C43 376.3 86 383.7 128.8 387.8C171.7 392 214.3 393 257.2 386.5C300 380 343 366 385.8 371C428.7 376 471.3 400 514.2 401.7C557 403.3 600 382.7 642.8 382.2C685.7 381.7 728.3 401.3 771.2 413.2C814 425 857 429 878.5 431L900 433L900 601L878.5 601C857 601 814 601 771.2 601C728.3 601 685.7 601 642.8 601C600 601 557 601 514.2 601C471.3 601 428.7 601 385.8 601C343 601 300 601 257.2 601C214.3 601 171.7 601 128.8 601C86 601 43 601 21.5 601L0 601Z" fill="#57fecf"></path><path d="M0 402L21.5 410C43 418 86 434 128.8 442.5C171.7 451 214.3 452 257.2 446C300 440 343 427 385.8 429.7C428.7 432.3 471.3 450.7 514.2 458.5C557 466.3 600 463.7 642.8 454C685.7 444.3 728.3 427.7 771.2 423.2C814 418.7 857 426.3 878.5 430.2L900 434L900 601L878.5 601C857 601 814 601 771.2 601C728.3 601 685.7 601 642.8 601C600 601 557 601 514.2 601C471.3 601 428.7 601 385.8 601C343 601 300 601 257.2 601C214.3 601 171.7 601 128.8 601C86 601 43 601 21.5 601L0 601Z" fill="#40d3ad"></path><path d="M0 491L21.5 484.2C43 477.3 86 463.7 128.8 460.8C171.7 458 214.3 466 257.2 476C300 486 343 498 385.8 497.2C428.7 496.3 471.3 482.7 514.2 479C557 475.3 600 481.7 642.8 482.8C685.7 484 728.3 480 771.2 473.8C814 467.7 857 459.3 878.5 455.2L900 451L900 601L878.5 601C857 601 814 601 771.2 601C728.3 601 685.7 601 642.8 601C600 601 557 601 514.2 601C471.3 601 428.7 601 385.8 601C343 601 300 601 257.2 601C214.3 601 171.7 601 128.8 601C86 601 43 601 21.5 601L0 601Z" fill="#2aa98b"></path><path d="M0 487L21.5 494.7C43 502.3 86 517.7 128.8 522.7C171.7 527.7 214.3 522.3 257.2 523.3C300 524.3 343 531.7 385.8 532.3C428.7 533 471.3 527 514.2 520.5C557 514 600 507 642.8 505.2C685.7 503.3 728.3 506.7 771.2 505.8C814 505 857 500 878.5 497.5L900 495L900 601L878.5 601C857 601 814 601 771.2 601C728.3 601 685.7 601 642.8 601C600 601 557 601 514.2 601C471.3 601 428.7 601 385.8 601C343 601 300 601 257.2 601C214.3 601 171.7 601 128.8 601C86 601 43 601 21.5 601L0 601Z" fill="#15816a"></path><path d="M0 550L21.5 546.8C43 543.7 86 537.3 128.8 533.3C171.7 529.3 214.3 527.7 257.2 531.8C300 536 343 546 385.8 551C428.7 556 471.3 556 514.2 553.7C557 551.3 600 546.7 642.8 543.5C685.7 540.3 728.3 538.7 771.2 536.5C814 534.3 857 531.7 878.5 530.3L900 529L900 601L878.5 601C857 601 814 601 771.2 601C728.3 601 685.7 601 642.8 601C600 601 557 601 514.2 601C471.3 601 428.7 601 385.8 601C343 601 300 601 257.2 601C214.3 601 171.7 601 128.8 601C86 601 43 601 21.5 601L0 601Z" fill="#005c4b"></path></svg>