<svg id="visual" viewBox="0 0 900 600" width="900" height="600" xmlns="http://www.w3.org/2000/svg" xmlns:xlink="http://www.w3.org/1999/xlink" version="1.1"><g stroke-width="1" stroke-linejoin="bevel"><path d="M468 282.1L378 341.9L461 338.9Z" fill="#33b998" stroke="#33b998"></path><path d="M468 282.1L357 222.1L378 341.9Z" fill="#44dbb3" stroke="#44dbb3"></path><path d="M311 393.6L360 391.6L378 341.9Z" fill="#005c4b" stroke="#005c4b"></path><path d="M378 341.9L461 418.6L461 338.9Z" fill="#005c4b" stroke="#005c4b"></path><path d="M360 391.6L461 418.6L378 341.9Z" fill="#198971" stroke="#198971"></path><path d="M461 338.9L549 251.1L468 282.1Z" fill="#44dbb3" stroke="#44dbb3"></path><path d="M257 235.1L311 393.6L378 341.9Z" fill="#076b57" stroke="#076b57"></path><path d="M360 391.6L349 499.3L461 418.6Z" fill="#3bcaa6" stroke="#3bcaa6"></path><path d="M564 381.9L549 251.1L461 338.9Z" fill="#22997e" stroke="#22997e"></path><path d="M453 154.4L389 158.4L357 222.1Z" fill="#2aa98b" stroke="#2aa98b"></path><path d="M453 154.4L357 222.1L468 282.1Z" fill="#33b998" stroke="#33b998"></path><path d="M549 251.1L453 154.4L468 282.1Z" fill="#33b998" stroke="#33b998"></path><path d="M461 418.6L564 381.9L461 338.9Z" fill="#076b57" stroke="#076b57"></path><path d="M301 126.7L284 197.4L357 222.1Z" fill="#076b57" stroke="#076b57"></path><path d="M357 222.1L257 235.1L378 341.9Z" fill="#33b998" stroke="#33b998"></path><path d="M284 197.4L257 235.1L357 222.1Z" fill="#076b57" stroke="#076b57"></path><path d="M629 282.1L561 201.4L549 251.1Z" fill="#005c4b" stroke="#005c4b"></path><path d="M549 251.1L561 201.4L453 154.4Z" fill="#57fecf" stroke="#57fecf"></path><path d="M257 235.1L242 372.9L311 393.6Z" fill="#22997e" stroke="#22997e"></path><path d="M465 520.3L536 460.6L461 418.6Z" fill="#4eedc1" stroke="#4eedc1"></path><path d="M461 418.6L536 460.6L564 381.9Z" fill="#117a64" stroke="#117a64"></path><path d="M220 449.6L349 499.3L311 393.6Z" fill="#198971" stroke="#198971"></path><path d="M311 393.6L349 499.3L360 391.6Z" fill="#33b998" stroke="#33b998"></path><path d="M638 335.9L629 282.1L564 381.9Z" fill="#076b57" stroke="#076b57"></path><path d="M564 381.9L629 282.1L549 251.1Z" fill="#33b998" stroke="#33b998"></path><path d="M389 158.4L301 126.7L357 222.1Z" fill="#076b57" stroke="#076b57"></path><path d="M175 167.4L182 267.1L257 235.1Z" fill="#3bcaa6" stroke="#3bcaa6"></path><path d="M393 83.7L301 126.7L389 158.4Z" fill="#117a64" stroke="#117a64"></path><path d="M349 499.3L465 520.3L461 418.6Z" fill="#22997e" stroke="#22997e"></path><path d="M652 412.6L638 335.9L564 381.9Z" fill="#117a64" stroke="#117a64"></path><path d="M489 72.7L393 83.7L453 154.4Z" fill="#117a64" stroke="#117a64"></path><path d="M453 154.4L393 83.7L389 158.4Z" fill="#3bcaa6" stroke="#3bcaa6"></path><path d="M613 153.4L520 98.7L561 201.4Z" fill="#2aa98b" stroke="#2aa98b"></path><path d="M561 201.4L520 98.7L453 154.4Z" fill="#198971" stroke="#198971"></path><path d="M175 167.4L257 235.1L284 197.4Z" fill="#076b57" stroke="#076b57"></path><path d="M257 235.1L182 267.1L242 372.9Z" fill="#076b57" stroke="#076b57"></path><path d="M520 98.7L489 72.7L453 154.4Z" fill="#117a64" stroke="#117a64"></path><path d="M242 372.9L220 449.6L311 393.6Z" fill="#22997e" stroke="#22997e"></path><path d="M175 338.9L220 449.6L242 372.9Z" fill="#3bcaa6" stroke="#3bcaa6"></path><path d="M182 267.1L175 338.9L242 372.9Z" fill="#3bcaa6" stroke="#3bcaa6"></path><path d="M629 282.1L613 153.4L561 201.4Z" fill="#22997e" stroke="#22997e"></path><path d="M564 0L438 0L489 72.7Z" fill="#005c4b" stroke="#005c4b"></path><path d="M701 218.1L613 153.4L629 282.1Z" fill="#44dbb3" stroke="#44dbb3"></path><path d="M465 520.3L582 493.3L536 460.6Z" fill="#005c4b" stroke="#005c4b"></path><path d="M536 460.6L582 493.3L564 381.9Z" fill="#005c4b" stroke="#005c4b"></path><path d="M582 493.3L652 412.6L564 381.9Z" fill="#33b998" stroke="#33b998"></path><path d="M728 305.9L701 218.1L629 282.1Z" fill="#076b57" stroke="#076b57"></path><path d="M203 492.3L243 518.3L220 449.6Z" fill="#005c4b" stroke="#005c4b"></path><path d="M220 449.6L243 518.3L349 499.3Z" fill="#076b57" stroke="#076b57"></path><path d="M364 600L470 600L465 520.3Z" fill="#22997e" stroke="#22997e"></path><path d="M188 117.7L175 167.4L284 197.4Z" fill="#005c4b" stroke="#005c4b"></path><path d="M182 267.1L130 300.9L175 338.9Z" fill="#33b998" stroke="#33b998"></path><path d="M188 117.7L284 197.4L301 126.7Z" fill="#57fecf" stroke="#57fecf"></path><path d="M103 498.3L203 492.3L220 449.6Z" fill="#198971" stroke="#198971"></path><path d="M85 236.1L130 300.9L182 267.1Z" fill="#4eedc1" stroke="#4eedc1"></path><path d="M175 338.9L103 498.3L220 449.6Z" fill="#005c4b" stroke="#005c4b"></path><path d="M728 305.9L629 282.1L638 335.9Z" fill="#44dbb3" stroke="#44dbb3"></path><path d="M296 0L188 117.7L301 126.7Z" fill="#33b998" stroke="#33b998"></path><path d="M175 167.4L85 236.1L182 267.1Z" fill="#4eedc1" stroke="#4eedc1"></path><path d="M364 600L465 520.3L349 499.3Z" fill="#4eedc1" stroke="#4eedc1"></path><path d="M465 520.3L559 600L582 493.3Z" fill="#22997e" stroke="#22997e"></path><path d="M254 600L364 600L349 499.3Z" fill="#2aa98b" stroke="#2aa98b"></path><path d="M254 600L349 499.3L243 518.3Z" fill="#2aa98b" stroke="#2aa98b"></path><path d="M489 72.7L438 0L393 83.7Z" fill="#076b57" stroke="#076b57"></path><path d="M393 83.7L356 0L301 126.7Z" fill="#44dbb3" stroke="#44dbb3"></path><path d="M564 0L489 72.7L520 98.7Z" fill="#198971" stroke="#198971"></path><path d="M610 56.7L520 98.7L613 153.4Z" fill="#076b57" stroke="#076b57"></path><path d="M652 412.6L728 305.9L638 335.9Z" fill="#198971" stroke="#198971"></path><path d="M438 0L356 0L393 83.7Z" fill="#57fecf" stroke="#57fecf"></path><path d="M750 56.7L610 56.7L613 153.4Z" fill="#22997e" stroke="#22997e"></path><path d="M672 496.3L678 483.3L582 493.3Z" fill="#005c4b" stroke="#005c4b"></path><path d="M582 493.3L678 483.3L652 412.6Z" fill="#22997e" stroke="#22997e"></path><path d="M652 412.6L738 439.6L728 305.9Z" fill="#076b57" stroke="#076b57"></path><path d="M654 600L672 496.3L582 493.3Z" fill="#4eedc1" stroke="#4eedc1"></path><path d="M470 600L559 600L465 520.3Z" fill="#005c4b" stroke="#005c4b"></path><path d="M356 0L296 0L301 126.7Z" fill="#44dbb3" stroke="#44dbb3"></path><path d="M167 600L254 600L243 518.3Z" fill="#005c4b" stroke="#005c4b"></path><path d="M610 56.7L564 0L520 98.7Z" fill="#4eedc1" stroke="#4eedc1"></path><path d="M78 198.4L85 236.1L175 167.4Z" fill="#57fecf" stroke="#57fecf"></path><path d="M50 437.6L103 498.3L175 338.9Z" fill="#57fecf" stroke="#57fecf"></path><path d="M728 305.9L750 211.4L701 218.1Z" fill="#2aa98b" stroke="#2aa98b"></path><path d="M701 218.1L750 56.7L613 153.4Z" fill="#44dbb3" stroke="#44dbb3"></path><path d="M610 56.7L643 0L564 0Z" fill="#3bcaa6" stroke="#3bcaa6"></path><path d="M678 483.3L738 439.6L652 412.6Z" fill="#076b57" stroke="#076b57"></path><path d="M728 305.9L827 232.1L750 211.4Z" fill="#005c4b" stroke="#005c4b"></path><path d="M819 534.3L738 439.6L678 483.3Z" fill="#4eedc1" stroke="#4eedc1"></path><path d="M819 534.3L678 483.3L672 496.3Z" fill="#22997e" stroke="#22997e"></path><path d="M49 104.7L78 198.4L175 167.4Z" fill="#005c4b" stroke="#005c4b"></path><path d="M49 104.7L175 167.4L188 117.7Z" fill="#2aa98b" stroke="#2aa98b"></path><path d="M50 437.6L130 300.9L0 353.9Z" fill="#4eedc1" stroke="#4eedc1"></path><path d="M50 437.6L175 338.9L130 300.9Z" fill="#22997e" stroke="#22997e"></path><path d="M203 492.3L167 600L243 518.3Z" fill="#57fecf" stroke="#57fecf"></path><path d="M559 600L654 600L582 493.3Z" fill="#117a64" stroke="#117a64"></path><path d="M750 56.7L643 0L610 56.7Z" fill="#2aa98b" stroke="#2aa98b"></path><path d="M103 498.3L167 600L203 492.3Z" fill="#198971" stroke="#198971"></path><path d="M814 421.6L805 355.9L738 439.6Z" fill="#33b998" stroke="#33b998"></path><path d="M738 439.6L805 355.9L728 305.9Z" fill="#22997e" stroke="#22997e"></path><path d="M0 292.1L130 300.9L85 236.1Z" fill="#22997e" stroke="#22997e"></path><path d="M103 498.3L79 600L167 600Z" fill="#44dbb3" stroke="#44dbb3"></path><path d="M296 0L155 0L188 117.7Z" fill="#33b998" stroke="#33b998"></path><path d="M819 534.3L814 421.6L738 439.6Z" fill="#117a64" stroke="#117a64"></path><path d="M750 211.4L750 56.7L701 218.1Z" fill="#22997e" stroke="#22997e"></path><path d="M850 194.4L750 56.7L750 211.4Z" fill="#005c4b" stroke="#005c4b"></path><path d="M850 194.4L827 232.1L900 246.1Z" fill="#44dbb3" stroke="#44dbb3"></path><path d="M805 355.9L827 232.1L728 305.9Z" fill="#117a64" stroke="#117a64"></path><path d="M0 151.4L0 292.1L78 198.4Z" fill="#22997e" stroke="#22997e"></path><path d="M78 198.4L0 292.1L85 236.1Z" fill="#4eedc1" stroke="#4eedc1"></path><path d="M97 0L49 104.7L188 117.7Z" fill="#3bcaa6" stroke="#3bcaa6"></path><path d="M0 292.1L0 353.9L130 300.9Z" fill="#4eedc1" stroke="#4eedc1"></path><path d="M654 600L725 600L672 496.3Z" fill="#198971" stroke="#198971"></path><path d="M0 353.9L0 422.6L50 437.6Z" fill="#2aa98b" stroke="#2aa98b"></path><path d="M0 489.3L79 600L103 498.3Z" fill="#22997e" stroke="#22997e"></path><path d="M155 0L97 0L188 117.7Z" fill="#57fecf" stroke="#57fecf"></path><path d="M49 104.7L0 151.4L78 198.4Z" fill="#4eedc1" stroke="#4eedc1"></path><path d="M0 64.7L0 151.4L49 104.7Z" fill="#198971" stroke="#198971"></path><path d="M900 305.9L827 232.1L805 355.9Z" fill="#2aa98b" stroke="#2aa98b"></path><path d="M827 232.1L850 194.4L750 211.4Z" fill="#33b998" stroke="#33b998"></path><path d="M0 489.3L103 498.3L50 437.6Z" fill="#44dbb3" stroke="#44dbb3"></path><path d="M767 0L758 0L750 56.7Z" fill="#117a64" stroke="#117a64"></path><path d="M750 56.7L758 0L643 0Z" fill="#117a64" stroke="#117a64"></path><path d="M0 422.6L0 489.3L50 437.6Z" fill="#2aa98b" stroke="#2aa98b"></path><path d="M725 600L819 534.3L672 496.3Z" fill="#198971" stroke="#198971"></path><path d="M900 423.6L900 305.9L805 355.9Z" fill="#57fecf" stroke="#57fecf"></path><path d="M808 46.7L767 0L750 56.7Z" fill="#3bcaa6" stroke="#3bcaa6"></path><path d="M850 194.4L808 46.7L750 56.7Z" fill="#22997e" stroke="#22997e"></path><path d="M900 423.6L805 355.9L814 421.6Z" fill="#22997e" stroke="#22997e"></path><path d="M850 194.4L900 143.4L808 46.7Z" fill="#57fecf" stroke="#57fecf"></path><path d="M97 0L0 64.7L49 104.7Z" fill="#44dbb3" stroke="#44dbb3"></path><path d="M900 305.9L900 246.1L827 232.1Z" fill="#117a64" stroke="#117a64"></path><path d="M819 534.3L900 423.6L814 421.6Z" fill="#117a64" stroke="#117a64"></path><path d="M725 600L823 600L819 534.3Z" fill="#005c4b" stroke="#005c4b"></path><path d="M819 534.3L900 535.3L900 423.6Z" fill="#22997e" stroke="#22997e"></path><path d="M900 246.1L900 143.4L850 194.4Z" fill="#44dbb3" stroke="#44dbb3"></path><path d="M808 46.7L900 0L767 0Z" fill="#117a64" stroke="#117a64"></path><path d="M0 489.3L0 600L79 600Z" fill="#198971" stroke="#198971"></path><path d="M97 0L0 0L0 64.7Z" fill="#3bcaa6" stroke="#3bcaa6"></path><path d="M823 600L900 535.3L819 534.3Z" fill="#57fecf" stroke="#57fecf"></path><path d="M900 143.4L900 59.7L808 46.7Z" fill="#117a64" stroke="#117a64"></path><path d="M823 600L900 600L900 535.3Z" fill="#117a64" stroke="#117a64"></path><path d="M900 59.7L900 0L808 46.7Z" fill="#22997e" stroke="#22997e"></path></g></svg>