<svg xmlns="http://www.w3.org/2000/svg" version="1.1" xmlns:xlink="http://www.w3.org/1999/xlink" xmlns:svgjs="http://svgjs.dev/svgjs" viewBox="0 0 800 800" width="800" height="800"><g stroke-width="3.5" stroke="#009677" fill="none"><rect width="26.666666666666668" height="8.578947368421051" x="-13.333333333333334" y="-4.289473684210526" stroke="none" fill="#009677" rx="4.289473684210526" transform="rotate(45, 0, 0)"></rect><rect width="8.578947368421051" height="26.666666666666668" x="-4.289473684210526" y="-13.333333333333334" stroke="none" fill="#009677" rx="4.289473684210526" transform="rotate(45, 0, 0)"></rect><rect width="26.666666666666668" height="8.578947368421051" x="40" y="-4.289473684210526" stroke="none" fill="#009677" rx="4.289473684210526" transform="rotate(45, 53.333333333333336, 0)"></rect><rect width="8.578947368421051" height="26.666666666666668" x="49.04385964912281" y="-13.333333333333334" stroke="none" fill="#009677" rx="4.289473684210526" transform="rotate(45, 53.333333333333336, 0)"></rect><rect width="26.666666666666668" height="8.578947368421051" x="93.33333333333334" y="-4.289473684210526" stroke="none" fill="#009677" rx="4.289473684210526" transform="rotate(45, 106.66666666666667, 0)"></rect><rect width="8.578947368421051" height="26.666666666666668" x="102.37719298245615" y="-13.333333333333334" stroke="none" fill="#009677" rx="4.289473684210526" transform="rotate(45, 106.66666666666667, 0)"></rect><rect width="26.666666666666668" height="8.578947368421051" x="146.66666666666666" y="-4.289473684210526" stroke="none" fill="#009677" rx="4.289473684210526" transform="rotate(45, 160, 0)"></rect><rect width="8.578947368421051" height="26.666666666666668" x="155.71052631578948" y="-13.333333333333334" stroke="none" fill="#009677" rx="4.289473684210526" transform="rotate(45, 160, 0)"></rect><rect width="26.666666666666668" height="8.578947368421051" x="200" y="-4.289473684210526" stroke="none" fill="#009677" rx="4.289473684210526" transform="rotate(45, 213.33333333333334, 0)"></rect><rect width="8.578947368421051" height="26.666666666666668" x="209.04385964912282" y="-13.333333333333334" stroke="none" fill="#009677" rx="4.289473684210526" transform="rotate(45, 213.33333333333334, 0)"></rect><rect width="26.666666666666668" height="8.578947368421051" x="253.33333333333334" y="-4.289473684210526" stroke="none" fill="#009677" rx="4.289473684210526" transform="rotate(45, 266.6666666666667, 0)"></rect><rect width="8.578947368421051" height="26.666666666666668" x="262.37719298245617" y="-13.333333333333334" stroke="none" fill="#009677" rx="4.289473684210526" transform="rotate(45, 266.6666666666667, 0)"></rect><rect width="26.666666666666668" height="8.578947368421051" x="306.6666666666667" y="-4.289473684210526" stroke="none" fill="#009677" rx="4.289473684210526" transform="rotate(45, 320, 0)"></rect><rect width="8.578947368421051" height="26.666666666666668" x="315.7105263157895" y="-13.333333333333334" stroke="none" fill="#009677" rx="4.289473684210526" transform="rotate(45, 320, 0)"></rect><rect width="26.666666666666668" height="8.578947368421051" x="360" y="-4.289473684210526" stroke="none" fill="#009677" rx="4.289473684210526" transform="rotate(45, 373.3333333333333, 0)"></rect><rect width="8.578947368421051" height="26.666666666666668" x="369.0438596491228" y="-13.333333333333334" stroke="none" fill="#009677" rx="4.289473684210526" transform="rotate(45, 373.3333333333333, 0)"></rect><rect width="26.666666666666668" height="8.578947368421051" x="413.3333333333333" y="-4.289473684210526" stroke="none" fill="#009677" rx="4.289473684210526" transform="rotate(45, 426.66666666666663, 0)"></rect><rect width="8.578947368421051" height="26.666666666666668" x="422.3771929824561" y="-13.333333333333334" stroke="none" fill="#009677" rx="4.289473684210526" transform="rotate(45, 426.66666666666663, 0)"></rect><rect width="26.666666666666668" height="8.578947368421051" x="466.66666666666663" y="-4.289473684210526" stroke="none" fill="#009677" rx="4.289473684210526" transform="rotate(45, 479.99999999999994, 0)"></rect><rect width="8.578947368421051" height="26.666666666666668" x="475.7105263157894" y="-13.333333333333334" stroke="none" fill="#009677" rx="4.289473684210526" transform="rotate(45, 479.99999999999994, 0)"></rect><rect width="26.666666666666668" height="8.578947368421051" x="519.9999999999999" y="-4.289473684210526" stroke="none" fill="#009677" rx="4.289473684210526" transform="rotate(45, 533.3333333333333, 0)"></rect><rect width="8.578947368421051" height="26.666666666666668" x="529.0438596491227" y="-13.333333333333334" stroke="none" fill="#009677" rx="4.289473684210526" transform="rotate(45, 533.3333333333333, 0)"></rect><rect width="26.666666666666668" height="8.578947368421051" x="573.3333333333333" y="-4.289473684210526" stroke="none" fill="#009677" rx="4.289473684210526" transform="rotate(45, 586.6666666666666, 0)"></rect><rect width="8.578947368421051" height="26.666666666666668" x="582.3771929824561" y="-13.333333333333334" stroke="none" fill="#009677" rx="4.289473684210526" transform="rotate(45, 586.6666666666666, 0)"></rect><rect width="26.666666666666668" height="8.578947368421051" x="626.6666666666666" y="-4.289473684210526" stroke="none" fill="#009677" rx="4.289473684210526" transform="rotate(45, 640, 0)"></rect><rect width="8.578947368421051" height="26.666666666666668" x="635.7105263157895" y="-13.333333333333334" stroke="none" fill="#009677" rx="4.289473684210526" transform="rotate(45, 640, 0)"></rect><rect width="26.666666666666668" height="8.578947368421051" x="680" y="-4.289473684210526" stroke="none" fill="#009677" rx="4.289473684210526" transform="rotate(45, 693.3333333333334, 0)"></rect><rect width="8.578947368421051" height="26.666666666666668" x="689.0438596491229" y="-13.333333333333334" stroke="none" fill="#009677" rx="4.289473684210526" transform="rotate(45, 693.3333333333334, 0)"></rect><rect width="26.666666666666668" height="8.578947368421051" x="733.3333333333334" y="-4.289473684210526" stroke="none" fill="#009677" rx="4.289473684210526" transform="rotate(45, 746.6666666666667, 0)"></rect><rect width="8.578947368421051" height="26.666666666666668" x="742.3771929824562" y="-13.333333333333334" stroke="none" fill="#009677" rx="4.289473684210526" transform="rotate(45, 746.6666666666667, 0)"></rect><rect width="26.666666666666668" height="8.578947368421051" x="786.6666666666667" y="-4.289473684210526" stroke="none" fill="#009677" rx="4.289473684210526" transform="rotate(45, 800.0000000000001, 0)"></rect><rect width="8.578947368421051" height="26.666666666666668" x="795.7105263157896" y="-13.333333333333334" stroke="none" fill="#009677" rx="4.289473684210526" transform="rotate(45, 800.0000000000001, 0)"></rect><rect width="26.666666666666668" height="8.578947368421051" x="-13.333333333333334" y="62.377192982456144" stroke="none" fill="#009677" rx="4.289473684210526" transform="rotate(45, 0, 66.66666666666667)"></rect><rect width="8.578947368421051" height="26.666666666666668" x="-4.289473684210526" y="53.333333333333336" stroke="none" fill="#009677" rx="4.289473684210526" transform="rotate(45, 0, 66.66666666666667)"></rect><rect width="26.666666666666668" height="8.578947368421051" x="40" y="62.377192982456144" stroke="none" fill="#009677" rx="4.289473684210526" transform="rotate(45, 53.333333333333336, 66.66666666666667)"></rect><rect width="8.578947368421051" height="26.666666666666668" x="49.04385964912281" y="53.333333333333336" stroke="none" fill="#009677" rx="4.289473684210526" transform="rotate(45, 53.333333333333336, 66.66666666666667)"></rect><rect width="26.666666666666668" height="8.578947368421051" x="93.33333333333334" y="62.377192982456144" stroke="none" fill="#009677" rx="4.289473684210526" transform="rotate(45, 106.66666666666667, 66.66666666666667)"></rect><rect width="8.578947368421051" height="26.666666666666668" x="102.37719298245615" y="53.333333333333336" stroke="none" fill="#009677" rx="4.289473684210526" transform="rotate(45, 106.66666666666667, 66.66666666666667)"></rect><rect width="26.666666666666668" height="8.578947368421051" x="146.66666666666666" y="62.377192982456144" stroke="none" fill="#009677" rx="4.289473684210526" transform="rotate(45, 160, 66.66666666666667)"></rect><rect width="8.578947368421051" height="26.666666666666668" x="155.71052631578948" y="53.333333333333336" stroke="none" fill="#009677" rx="4.289473684210526" transform="rotate(45, 160, 66.66666666666667)"></rect><rect width="26.666666666666668" height="8.578947368421051" x="200" y="62.377192982456144" stroke="none" fill="#009677" rx="4.289473684210526" transform="rotate(45, 213.33333333333334, 66.66666666666667)"></rect><rect width="8.578947368421051" height="26.666666666666668" x="209.04385964912282" y="53.333333333333336" stroke="none" fill="#009677" rx="4.289473684210526" transform="rotate(45, 213.33333333333334, 66.66666666666667)"></rect><rect width="26.666666666666668" height="8.578947368421051" x="253.33333333333334" y="62.377192982456144" stroke="none" fill="#009677" rx="4.289473684210526" transform="rotate(45, 266.6666666666667, 66.66666666666667)"></rect><rect width="8.578947368421051" height="26.666666666666668" x="262.37719298245617" y="53.333333333333336" stroke="none" fill="#009677" rx="4.289473684210526" transform="rotate(45, 266.6666666666667, 66.66666666666667)"></rect><rect width="26.666666666666668" height="8.578947368421051" x="306.6666666666667" y="62.377192982456144" stroke="none" fill="#009677" rx="4.289473684210526" transform="rotate(45, 320, 66.66666666666667)"></rect><rect width="8.578947368421051" height="26.666666666666668" x="315.7105263157895" y="53.333333333333336" stroke="none" fill="#009677" rx="4.289473684210526" transform="rotate(45, 320, 66.66666666666667)"></rect><rect width="26.666666666666668" height="8.578947368421051" x="360" y="62.377192982456144" stroke="none" fill="#009677" rx="4.289473684210526" transform="rotate(45, 373.3333333333333, 66.66666666666667)"></rect><rect width="8.578947368421051" height="26.666666666666668" x="369.0438596491228" y="53.333333333333336" stroke="none" fill="#009677" rx="4.289473684210526" transform="rotate(45, 373.3333333333333, 66.66666666666667)"></rect><rect width="26.666666666666668" height="8.578947368421051" x="413.3333333333333" y="62.377192982456144" stroke="none" fill="#009677" rx="4.289473684210526" transform="rotate(45, 426.66666666666663, 66.66666666666667)"></rect><rect width="8.578947368421051" height="26.666666666666668" x="422.3771929824561" y="53.333333333333336" stroke="none" fill="#009677" rx="4.289473684210526" transform="rotate(45, 426.66666666666663, 66.66666666666667)"></rect><rect width="26.666666666666668" height="8.578947368421051" x="466.66666666666663" y="62.377192982456144" stroke="none" fill="#009677" rx="4.289473684210526" transform="rotate(45, 479.99999999999994, 66.66666666666667)"></rect><rect width="8.578947368421051" height="26.666666666666668" x="475.7105263157894" y="53.333333333333336" stroke="none" fill="#009677" rx="4.289473684210526" transform="rotate(45, 479.99999999999994, 66.66666666666667)"></rect><rect width="26.666666666666668" height="8.578947368421051" x="519.9999999999999" y="62.377192982456144" stroke="none" fill="#009677" rx="4.289473684210526" transform="rotate(45, 533.3333333333333, 66.66666666666667)"></rect><rect width="8.578947368421051" height="26.666666666666668" x="529.0438596491227" y="53.333333333333336" stroke="none" fill="#009677" rx="4.289473684210526" transform="rotate(45, 533.3333333333333, 66.66666666666667)"></rect><rect width="26.666666666666668" height="8.578947368421051" x="573.3333333333333" y="62.377192982456144" stroke="none" fill="#009677" rx="4.289473684210526" transform="rotate(45, 586.6666666666666, 66.66666666666667)"></rect><rect width="8.578947368421051" height="26.666666666666668" x="582.3771929824561" y="53.333333333333336" stroke="none" fill="#009677" rx="4.289473684210526" transform="rotate(45, 586.6666666666666, 66.66666666666667)"></rect><rect width="26.666666666666668" height="8.578947368421051" x="626.6666666666666" y="62.377192982456144" stroke="none" fill="#009677" rx="4.289473684210526" transform="rotate(45, 640, 66.66666666666667)"></rect><rect width="8.578947368421051" height="26.666666666666668" x="635.7105263157895" y="53.333333333333336" stroke="none" fill="#009677" rx="4.289473684210526" transform="rotate(45, 640, 66.66666666666667)"></rect><rect width="26.666666666666668" height="8.578947368421051" x="680" y="62.377192982456144" stroke="none" fill="#009677" rx="4.289473684210526" transform="rotate(45, 693.3333333333334, 66.66666666666667)"></rect><rect width="8.578947368421051" height="26.666666666666668" x="689.0438596491229" y="53.333333333333336" stroke="none" fill="#009677" rx="4.289473684210526" transform="rotate(45, 693.3333333333334, 66.66666666666667)"></rect><rect width="26.666666666666668" height="8.578947368421051" x="733.3333333333334" y="62.377192982456144" stroke="none" fill="#009677" rx="4.289473684210526" transform="rotate(45, 746.6666666666667, 66.66666666666667)"></rect><rect width="8.578947368421051" height="26.666666666666668" x="742.3771929824562" y="53.333333333333336" stroke="none" fill="#009677" rx="4.289473684210526" transform="rotate(45, 746.6666666666667, 66.66666666666667)"></rect><rect width="26.666666666666668" height="8.578947368421051" x="786.6666666666667" y="62.377192982456144" stroke="none" fill="#009677" rx="4.289473684210526" transform="rotate(45, 800.0000000000001, 66.66666666666667)"></rect><rect width="8.578947368421051" height="26.666666666666668" x="795.7105263157896" y="53.333333333333336" stroke="none" fill="#009677" rx="4.289473684210526" transform="rotate(45, 800.0000000000001, 66.66666666666667)"></rect><rect width="26.666666666666668" height="8.578947368421051" x="-13.333333333333334" y="129.04385964912282" stroke="none" fill="#009677" rx="4.289473684210526" transform="rotate(45, 0, 133.33333333333334)"></rect><rect width="8.578947368421051" height="26.666666666666668" x="-4.289473684210526" y="120.00000000000001" stroke="none" fill="#009677" rx="4.289473684210526" transform="rotate(45, 0, 133.33333333333334)"></rect><rect width="26.666666666666668" height="8.578947368421051" x="40" y="129.04385964912282" stroke="none" fill="#009677" rx="4.289473684210526" transform="rotate(45, 53.333333333333336, 133.33333333333334)"></rect><rect width="8.578947368421051" height="26.666666666666668" x="49.04385964912281" y="120.00000000000001" stroke="none" fill="#009677" rx="4.289473684210526" transform="rotate(45, 53.333333333333336, 133.33333333333334)"></rect><rect width="26.666666666666668" height="8.578947368421051" x="93.33333333333334" y="129.04385964912282" stroke="none" fill="#009677" rx="4.289473684210526" transform="rotate(45, 106.66666666666667, 133.33333333333334)"></rect><rect width="8.578947368421051" height="26.666666666666668" x="102.37719298245615" y="120.00000000000001" stroke="none" fill="#009677" rx="4.289473684210526" transform="rotate(45, 106.66666666666667, 133.33333333333334)"></rect><rect width="26.666666666666668" height="8.578947368421051" x="146.66666666666666" y="129.04385964912282" stroke="none" fill="#009677" rx="4.289473684210526" transform="rotate(45, 160, 133.33333333333334)"></rect><rect width="8.578947368421051" height="26.666666666666668" x="155.71052631578948" y="120.00000000000001" stroke="none" fill="#009677" rx="4.289473684210526" transform="rotate(45, 160, 133.33333333333334)"></rect><rect width="26.666666666666668" height="8.578947368421051" x="200" y="129.04385964912282" stroke="none" fill="#009677" rx="4.289473684210526" transform="rotate(45, 213.33333333333334, 133.33333333333334)"></rect><rect width="8.578947368421051" height="26.666666666666668" x="209.04385964912282" y="120.00000000000001" stroke="none" fill="#009677" rx="4.289473684210526" transform="rotate(45, 213.33333333333334, 133.33333333333334)"></rect><rect width="26.666666666666668" height="8.578947368421051" x="253.33333333333334" y="129.04385964912282" stroke="none" fill="#009677" rx="4.289473684210526" transform="rotate(45, 266.6666666666667, 133.33333333333334)"></rect><rect width="8.578947368421051" height="26.666666666666668" x="262.37719298245617" y="120.00000000000001" stroke="none" fill="#009677" rx="4.289473684210526" transform="rotate(45, 266.6666666666667, 133.33333333333334)"></rect><rect width="26.666666666666668" height="8.578947368421051" x="306.6666666666667" y="129.04385964912282" stroke="none" fill="#009677" rx="4.289473684210526" transform="rotate(45, 320, 133.33333333333334)"></rect><rect width="8.578947368421051" height="26.666666666666668" x="315.7105263157895" y="120.00000000000001" stroke="none" fill="#009677" rx="4.289473684210526" transform="rotate(45, 320, 133.33333333333334)"></rect><rect width="26.666666666666668" height="8.578947368421051" x="360" y="129.04385964912282" stroke="none" fill="#009677" rx="4.289473684210526" transform="rotate(45, 373.3333333333333, 133.33333333333334)"></rect><rect width="8.578947368421051" height="26.666666666666668" x="369.0438596491228" y="120.00000000000001" stroke="none" fill="#009677" rx="4.289473684210526" transform="rotate(45, 373.3333333333333, 133.33333333333334)"></rect><rect width="26.666666666666668" height="8.578947368421051" x="413.3333333333333" y="129.04385964912282" stroke="none" fill="#009677" rx="4.289473684210526" transform="rotate(45, 426.66666666666663, 133.33333333333334)"></rect><rect width="8.578947368421051" height="26.666666666666668" x="422.3771929824561" y="120.00000000000001" stroke="none" fill="#009677" rx="4.289473684210526" transform="rotate(45, 426.66666666666663, 133.33333333333334)"></rect><rect width="26.666666666666668" height="8.578947368421051" x="466.66666666666663" y="129.04385964912282" stroke="none" fill="#009677" rx="4.289473684210526" transform="rotate(45, 479.99999999999994, 133.33333333333334)"></rect><rect width="8.578947368421051" height="26.666666666666668" x="475.7105263157894" y="120.00000000000001" stroke="none" fill="#009677" rx="4.289473684210526" transform="rotate(45, 479.99999999999994, 133.33333333333334)"></rect><rect width="26.666666666666668" height="8.578947368421051" x="519.9999999999999" y="129.04385964912282" stroke="none" fill="#009677" rx="4.289473684210526" transform="rotate(45, 533.3333333333333, 133.33333333333334)"></rect><rect width="8.578947368421051" height="26.666666666666668" x="529.0438596491227" y="120.00000000000001" stroke="none" fill="#009677" rx="4.289473684210526" transform="rotate(45, 533.3333333333333, 133.33333333333334)"></rect><rect width="26.666666666666668" height="8.578947368421051" x="573.3333333333333" y="129.04385964912282" stroke="none" fill="#009677" rx="4.289473684210526" transform="rotate(45, 586.6666666666666, 133.33333333333334)"></rect><rect width="8.578947368421051" height="26.666666666666668" x="582.3771929824561" y="120.00000000000001" stroke="none" fill="#009677" rx="4.289473684210526" transform="rotate(45, 586.6666666666666, 133.33333333333334)"></rect><rect width="26.666666666666668" height="8.578947368421051" x="626.6666666666666" y="129.04385964912282" stroke="none" fill="#009677" rx="4.289473684210526" transform="rotate(45, 640, 133.33333333333334)"></rect><rect width="8.578947368421051" height="26.666666666666668" x="635.7105263157895" y="120.00000000000001" stroke="none" fill="#009677" rx="4.289473684210526" transform="rotate(45, 640, 133.33333333333334)"></rect><rect width="26.666666666666668" height="8.578947368421051" x="680" y="129.04385964912282" stroke="none" fill="#009677" rx="4.289473684210526" transform="rotate(45, 693.3333333333334, 133.33333333333334)"></rect><rect width="8.578947368421051" height="26.666666666666668" x="689.0438596491229" y="120.00000000000001" stroke="none" fill="#009677" rx="4.289473684210526" transform="rotate(45, 693.3333333333334, 133.33333333333334)"></rect><rect width="26.666666666666668" height="8.578947368421051" x="733.3333333333334" y="129.04385964912282" stroke="none" fill="#009677" rx="4.289473684210526" transform="rotate(45, 746.6666666666667, 133.33333333333334)"></rect><rect width="8.578947368421051" height="26.666666666666668" x="742.3771929824562" y="120.00000000000001" stroke="none" fill="#009677" rx="4.289473684210526" transform="rotate(45, 746.6666666666667, 133.33333333333334)"></rect><rect width="26.666666666666668" height="8.578947368421051" x="786.6666666666667" y="129.04385964912282" stroke="none" fill="#009677" rx="4.289473684210526" transform="rotate(45, 800.0000000000001, 133.33333333333334)"></rect><rect width="8.578947368421051" height="26.666666666666668" x="795.7105263157896" y="120.00000000000001" stroke="none" fill="#009677" rx="4.289473684210526" transform="rotate(45, 800.0000000000001, 133.33333333333334)"></rect><rect width="26.666666666666668" height="8.578947368421051" x="-13.333333333333334" y="195.71052631578948" stroke="none" fill="#009677" rx="4.289473684210526" transform="rotate(45, 0, 200)"></rect><rect width="8.578947368421051" height="26.666666666666668" x="-4.289473684210526" y="186.66666666666666" stroke="none" fill="#009677" rx="4.289473684210526" transform="rotate(45, 0, 200)"></rect><rect width="26.666666666666668" height="8.578947368421051" x="40" y="195.71052631578948" stroke="none" fill="#009677" rx="4.289473684210526" transform="rotate(45, 53.333333333333336, 200)"></rect><rect width="8.578947368421051" height="26.666666666666668" x="49.04385964912281" y="186.66666666666666" stroke="none" fill="#009677" rx="4.289473684210526" transform="rotate(45, 53.333333333333336, 200)"></rect><rect width="26.666666666666668" height="8.578947368421051" x="93.33333333333334" y="195.71052631578948" stroke="none" fill="#009677" rx="4.289473684210526" transform="rotate(45, 106.66666666666667, 200)"></rect><rect width="8.578947368421051" height="26.666666666666668" x="102.37719298245615" y="186.66666666666666" stroke="none" fill="#009677" rx="4.289473684210526" transform="rotate(45, 106.66666666666667, 200)"></rect><rect width="26.666666666666668" height="8.578947368421051" x="146.66666666666666" y="195.71052631578948" stroke="none" fill="#009677" rx="4.289473684210526" transform="rotate(45, 160, 200)"></rect><rect width="8.578947368421051" height="26.666666666666668" x="155.71052631578948" y="186.66666666666666" stroke="none" fill="#009677" rx="4.289473684210526" transform="rotate(45, 160, 200)"></rect><rect width="26.666666666666668" height="8.578947368421051" x="200" y="195.71052631578948" stroke="none" fill="#009677" rx="4.289473684210526" transform="rotate(45, 213.33333333333334, 200)"></rect><rect width="8.578947368421051" height="26.666666666666668" x="209.04385964912282" y="186.66666666666666" stroke="none" fill="#009677" rx="4.289473684210526" transform="rotate(45, 213.33333333333334, 200)"></rect><rect width="26.666666666666668" height="8.578947368421051" x="253.33333333333334" y="195.71052631578948" stroke="none" fill="#009677" rx="4.289473684210526" transform="rotate(45, 266.6666666666667, 200)"></rect><rect width="8.578947368421051" height="26.666666666666668" x="262.37719298245617" y="186.66666666666666" stroke="none" fill="#009677" rx="4.289473684210526" transform="rotate(45, 266.6666666666667, 200)"></rect><rect width="26.666666666666668" height="8.578947368421051" x="306.6666666666667" y="195.71052631578948" stroke="none" fill="#009677" rx="4.289473684210526" transform="rotate(45, 320, 200)"></rect><rect width="8.578947368421051" height="26.666666666666668" x="315.7105263157895" y="186.66666666666666" stroke="none" fill="#009677" rx="4.289473684210526" transform="rotate(45, 320, 200)"></rect><rect width="26.666666666666668" height="8.578947368421051" x="360" y="195.71052631578948" stroke="none" fill="#009677" rx="4.289473684210526" transform="rotate(45, 373.3333333333333, 200)"></rect><rect width="8.578947368421051" height="26.666666666666668" x="369.0438596491228" y="186.66666666666666" stroke="none" fill="#009677" rx="4.289473684210526" transform="rotate(45, 373.3333333333333, 200)"></rect><rect width="26.666666666666668" height="8.578947368421051" x="413.3333333333333" y="195.71052631578948" stroke="none" fill="#009677" rx="4.289473684210526" transform="rotate(45, 426.66666666666663, 200)"></rect><rect width="8.578947368421051" height="26.666666666666668" x="422.3771929824561" y="186.66666666666666" stroke="none" fill="#009677" rx="4.289473684210526" transform="rotate(45, 426.66666666666663, 200)"></rect><rect width="26.666666666666668" height="8.578947368421051" x="466.66666666666663" y="195.71052631578948" stroke="none" fill="#009677" rx="4.289473684210526" transform="rotate(45, 479.99999999999994, 200)"></rect><rect width="8.578947368421051" height="26.666666666666668" x="475.7105263157894" y="186.66666666666666" stroke="none" fill="#009677" rx="4.289473684210526" transform="rotate(45, 479.99999999999994, 200)"></rect><rect width="26.666666666666668" height="8.578947368421051" x="519.9999999999999" y="195.71052631578948" stroke="none" fill="#009677" rx="4.289473684210526" transform="rotate(45, 533.3333333333333, 200)"></rect><rect width="8.578947368421051" height="26.666666666666668" x="529.0438596491227" y="186.66666666666666" stroke="none" fill="#009677" rx="4.289473684210526" transform="rotate(45, 533.3333333333333, 200)"></rect><rect width="26.666666666666668" height="8.578947368421051" x="573.3333333333333" y="195.71052631578948" stroke="none" fill="#009677" rx="4.289473684210526" transform="rotate(45, 586.6666666666666, 200)"></rect><rect width="8.578947368421051" height="26.666666666666668" x="582.3771929824561" y="186.66666666666666" stroke="none" fill="#009677" rx="4.289473684210526" transform="rotate(45, 586.6666666666666, 200)"></rect><rect width="26.666666666666668" height="8.578947368421051" x="626.6666666666666" y="195.71052631578948" stroke="none" fill="#009677" rx="4.289473684210526" transform="rotate(45, 640, 200)"></rect><rect width="8.578947368421051" height="26.666666666666668" x="635.7105263157895" y="186.66666666666666" stroke="none" fill="#009677" rx="4.289473684210526" transform="rotate(45, 640, 200)"></rect><rect width="26.666666666666668" height="8.578947368421051" x="680" y="195.71052631578948" stroke="none" fill="#009677" rx="4.289473684210526" transform="rotate(45, 693.3333333333334, 200)"></rect><rect width="8.578947368421051" height="26.666666666666668" x="689.0438596491229" y="186.66666666666666" stroke="none" fill="#009677" rx="4.289473684210526" transform="rotate(45, 693.3333333333334, 200)"></rect><rect width="26.666666666666668" height="8.578947368421051" x="733.3333333333334" y="195.71052631578948" stroke="none" fill="#009677" rx="4.289473684210526" transform="rotate(45, 746.6666666666667, 200)"></rect><rect width="8.578947368421051" height="26.666666666666668" x="742.3771929824562" y="186.66666666666666" stroke="none" fill="#009677" rx="4.289473684210526" transform="rotate(45, 746.6666666666667, 200)"></rect><rect width="26.666666666666668" height="8.578947368421051" x="786.6666666666667" y="195.71052631578948" stroke="none" fill="#009677" rx="4.289473684210526" transform="rotate(45, 800.0000000000001, 200)"></rect><rect width="8.578947368421051" height="26.666666666666668" x="795.7105263157896" y="186.66666666666666" stroke="none" fill="#009677" rx="4.289473684210526" transform="rotate(45, 800.0000000000001, 200)"></rect><rect width="26.666666666666668" height="8.578947368421051" x="-13.333333333333334" y="262.37719298245617" stroke="none" fill="#009677" rx="4.289473684210526" transform="rotate(45, 0, 266.6666666666667)"></rect><rect width="8.578947368421051" height="26.666666666666668" x="-4.289473684210526" y="253.33333333333334" stroke="none" fill="#009677" rx="4.289473684210526" transform="rotate(45, 0, 266.6666666666667)"></rect><rect width="26.666666666666668" height="8.578947368421051" x="40" y="262.37719298245617" stroke="none" fill="#009677" rx="4.289473684210526" transform="rotate(45, 53.333333333333336, 266.6666666666667)"></rect><rect width="8.578947368421051" height="26.666666666666668" x="49.04385964912281" y="253.33333333333334" stroke="none" fill="#009677" rx="4.289473684210526" transform="rotate(45, 53.333333333333336, 266.6666666666667)"></rect><rect width="26.666666666666668" height="8.578947368421051" x="93.33333333333334" y="262.37719298245617" stroke="none" fill="#009677" rx="4.289473684210526" transform="rotate(45, 106.66666666666667, 266.6666666666667)"></rect><rect width="8.578947368421051" height="26.666666666666668" x="102.37719298245615" y="253.33333333333334" stroke="none" fill="#009677" rx="4.289473684210526" transform="rotate(45, 106.66666666666667, 266.6666666666667)"></rect><rect width="26.666666666666668" height="8.578947368421051" x="146.66666666666666" y="262.37719298245617" stroke="none" fill="#009677" rx="4.289473684210526" transform="rotate(45, 160, 266.6666666666667)"></rect><rect width="8.578947368421051" height="26.666666666666668" x="155.71052631578948" y="253.33333333333334" stroke="none" fill="#009677" rx="4.289473684210526" transform="rotate(45, 160, 266.6666666666667)"></rect><rect width="26.666666666666668" height="8.578947368421051" x="200" y="262.37719298245617" stroke="none" fill="#009677" rx="4.289473684210526" transform="rotate(45, 213.33333333333334, 266.6666666666667)"></rect><rect width="8.578947368421051" height="26.666666666666668" x="209.04385964912282" y="253.33333333333334" stroke="none" fill="#009677" rx="4.289473684210526" transform="rotate(45, 213.33333333333334, 266.6666666666667)"></rect><rect width="26.666666666666668" height="8.578947368421051" x="253.33333333333334" y="262.37719298245617" stroke="none" fill="#009677" rx="4.289473684210526" transform="rotate(45, 266.6666666666667, 266.6666666666667)"></rect><rect width="8.578947368421051" height="26.666666666666668" x="262.37719298245617" y="253.33333333333334" stroke="none" fill="#009677" rx="4.289473684210526" transform="rotate(45, 266.6666666666667, 266.6666666666667)"></rect><rect width="26.666666666666668" height="8.578947368421051" x="306.6666666666667" y="262.37719298245617" stroke="none" fill="#009677" rx="4.289473684210526" transform="rotate(45, 320, 266.6666666666667)"></rect><rect width="8.578947368421051" height="26.666666666666668" x="315.7105263157895" y="253.33333333333334" stroke="none" fill="#009677" rx="4.289473684210526" transform="rotate(45, 320, 266.6666666666667)"></rect><rect width="26.666666666666668" height="8.578947368421051" x="360" y="262.37719298245617" stroke="none" fill="#009677" rx="4.289473684210526" transform="rotate(45, 373.3333333333333, 266.6666666666667)"></rect><rect width="8.578947368421051" height="26.666666666666668" x="369.0438596491228" y="253.33333333333334" stroke="none" fill="#009677" rx="4.289473684210526" transform="rotate(45, 373.3333333333333, 266.6666666666667)"></rect><rect width="26.666666666666668" height="8.578947368421051" x="413.3333333333333" y="262.37719298245617" stroke="none" fill="#009677" rx="4.289473684210526" transform="rotate(45, 426.66666666666663, 266.6666666666667)"></rect><rect width="8.578947368421051" height="26.666666666666668" x="422.3771929824561" y="253.33333333333334" stroke="none" fill="#009677" rx="4.289473684210526" transform="rotate(45, 426.66666666666663, 266.6666666666667)"></rect><rect width="26.666666666666668" height="8.578947368421051" x="466.66666666666663" y="262.37719298245617" stroke="none" fill="#009677" rx="4.289473684210526" transform="rotate(45, 479.99999999999994, 266.6666666666667)"></rect><rect width="8.578947368421051" height="26.666666666666668" x="475.7105263157894" y="253.33333333333334" stroke="none" fill="#009677" rx="4.289473684210526" transform="rotate(45, 479.99999999999994, 266.6666666666667)"></rect><rect width="26.666666666666668" height="8.578947368421051" x="519.9999999999999" y="262.37719298245617" stroke="none" fill="#009677" rx="4.289473684210526" transform="rotate(45, 533.3333333333333, 266.6666666666667)"></rect><rect width="8.578947368421051" height="26.666666666666668" x="529.0438596491227" y="253.33333333333334" stroke="none" fill="#009677" rx="4.289473684210526" transform="rotate(45, 533.3333333333333, 266.6666666666667)"></rect><rect width="26.666666666666668" height="8.578947368421051" x="573.3333333333333" y="262.37719298245617" stroke="none" fill="#009677" rx="4.289473684210526" transform="rotate(45, 586.6666666666666, 266.6666666666667)"></rect><rect width="8.578947368421051" height="26.666666666666668" x="582.3771929824561" y="253.33333333333334" stroke="none" fill="#009677" rx="4.289473684210526" transform="rotate(45, 586.6666666666666, 266.6666666666667)"></rect><rect width="26.666666666666668" height="8.578947368421051" x="626.6666666666666" y="262.37719298245617" stroke="none" fill="#009677" rx="4.289473684210526" transform="rotate(45, 640, 266.6666666666667)"></rect><rect width="8.578947368421051" height="26.666666666666668" x="635.7105263157895" y="253.33333333333334" stroke="none" fill="#009677" rx="4.289473684210526" transform="rotate(45, 640, 266.6666666666667)"></rect><rect width="26.666666666666668" height="8.578947368421051" x="680" y="262.37719298245617" stroke="none" fill="#009677" rx="4.289473684210526" transform="rotate(45, 693.3333333333334, 266.6666666666667)"></rect><rect width="8.578947368421051" height="26.666666666666668" x="689.0438596491229" y="253.33333333333334" stroke="none" fill="#009677" rx="4.289473684210526" transform="rotate(45, 693.3333333333334, 266.6666666666667)"></rect><rect width="26.666666666666668" height="8.578947368421051" x="733.3333333333334" y="262.37719298245617" stroke="none" fill="#009677" rx="4.289473684210526" transform="rotate(45, 746.6666666666667, 266.6666666666667)"></rect><rect width="8.578947368421051" height="26.666666666666668" x="742.3771929824562" y="253.33333333333334" stroke="none" fill="#009677" rx="4.289473684210526" transform="rotate(45, 746.6666666666667, 266.6666666666667)"></rect><rect width="26.666666666666668" height="8.578947368421051" x="786.6666666666667" y="262.37719298245617" stroke="none" fill="#009677" rx="4.289473684210526" transform="rotate(45, 800.0000000000001, 266.6666666666667)"></rect><rect width="8.578947368421051" height="26.666666666666668" x="795.7105263157896" y="253.33333333333334" stroke="none" fill="#009677" rx="4.289473684210526" transform="rotate(45, 800.0000000000001, 266.6666666666667)"></rect><rect width="26.666666666666668" height="8.578947368421051" x="-13.333333333333334" y="329.04385964912285" stroke="none" fill="#009677" rx="4.289473684210526" transform="rotate(45, 0, 333.33333333333337)"></rect><rect width="8.578947368421051" height="26.666666666666668" x="-4.289473684210526" y="320.00000000000006" stroke="none" fill="#009677" rx="4.289473684210526" transform="rotate(45, 0, 333.33333333333337)"></rect><rect width="26.666666666666668" height="8.578947368421051" x="40" y="329.04385964912285" stroke="none" fill="#009677" rx="4.289473684210526" transform="rotate(45, 53.333333333333336, 333.33333333333337)"></rect><rect width="8.578947368421051" height="26.666666666666668" x="49.04385964912281" y="320.00000000000006" stroke="none" fill="#009677" rx="4.289473684210526" transform="rotate(45, 53.333333333333336, 333.33333333333337)"></rect><rect width="26.666666666666668" height="8.578947368421051" x="93.33333333333334" y="329.04385964912285" stroke="none" fill="#009677" rx="4.289473684210526" transform="rotate(45, 106.66666666666667, 333.33333333333337)"></rect><rect width="8.578947368421051" height="26.666666666666668" x="102.37719298245615" y="320.00000000000006" stroke="none" fill="#009677" rx="4.289473684210526" transform="rotate(45, 106.66666666666667, 333.33333333333337)"></rect><rect width="26.666666666666668" height="8.578947368421051" x="146.66666666666666" y="329.04385964912285" stroke="none" fill="#009677" rx="4.289473684210526" transform="rotate(45, 160, 333.33333333333337)"></rect><rect width="8.578947368421051" height="26.666666666666668" x="155.71052631578948" y="320.00000000000006" stroke="none" fill="#009677" rx="4.289473684210526" transform="rotate(45, 160, 333.33333333333337)"></rect><rect width="26.666666666666668" height="8.578947368421051" x="200" y="329.04385964912285" stroke="none" fill="#009677" rx="4.289473684210526" transform="rotate(45, 213.33333333333334, 333.33333333333337)"></rect><rect width="8.578947368421051" height="26.666666666666668" x="209.04385964912282" y="320.00000000000006" stroke="none" fill="#009677" rx="4.289473684210526" transform="rotate(45, 213.33333333333334, 333.33333333333337)"></rect><rect width="26.666666666666668" height="8.578947368421051" x="253.33333333333334" y="329.04385964912285" stroke="none" fill="#009677" rx="4.289473684210526" transform="rotate(45, 266.6666666666667, 333.33333333333337)"></rect><rect width="8.578947368421051" height="26.666666666666668" x="262.37719298245617" y="320.00000000000006" stroke="none" fill="#009677" rx="4.289473684210526" transform="rotate(45, 266.6666666666667, 333.33333333333337)"></rect><rect width="26.666666666666668" height="8.578947368421051" x="306.6666666666667" y="329.04385964912285" stroke="none" fill="#009677" rx="4.289473684210526" transform="rotate(45, 320, 333.33333333333337)"></rect><rect width="8.578947368421051" height="26.666666666666668" x="315.7105263157895" y="320.00000000000006" stroke="none" fill="#009677" rx="4.289473684210526" transform="rotate(45, 320, 333.33333333333337)"></rect><rect width="26.666666666666668" height="8.578947368421051" x="360" y="329.04385964912285" stroke="none" fill="#009677" rx="4.289473684210526" transform="rotate(45, 373.3333333333333, 333.33333333333337)"></rect><rect width="8.578947368421051" height="26.666666666666668" x="369.0438596491228" y="320.00000000000006" stroke="none" fill="#009677" rx="4.289473684210526" transform="rotate(45, 373.3333333333333, 333.33333333333337)"></rect><rect width="26.666666666666668" height="8.578947368421051" x="413.3333333333333" y="329.04385964912285" stroke="none" fill="#009677" rx="4.289473684210526" transform="rotate(45, 426.66666666666663, 333.33333333333337)"></rect><rect width="8.578947368421051" height="26.666666666666668" x="422.3771929824561" y="320.00000000000006" stroke="none" fill="#009677" rx="4.289473684210526" transform="rotate(45, 426.66666666666663, 333.33333333333337)"></rect><rect width="26.666666666666668" height="8.578947368421051" x="466.66666666666663" y="329.04385964912285" stroke="none" fill="#009677" rx="4.289473684210526" transform="rotate(45, 479.99999999999994, 333.33333333333337)"></rect><rect width="8.578947368421051" height="26.666666666666668" x="475.7105263157894" y="320.00000000000006" stroke="none" fill="#009677" rx="4.289473684210526" transform="rotate(45, 479.99999999999994, 333.33333333333337)"></rect><rect width="26.666666666666668" height="8.578947368421051" x="519.9999999999999" y="329.04385964912285" stroke="none" fill="#009677" rx="4.289473684210526" transform="rotate(45, 533.3333333333333, 333.33333333333337)"></rect><rect width="8.578947368421051" height="26.666666666666668" x="529.0438596491227" y="320.00000000000006" stroke="none" fill="#009677" rx="4.289473684210526" transform="rotate(45, 533.3333333333333, 333.33333333333337)"></rect><rect width="26.666666666666668" height="8.578947368421051" x="573.3333333333333" y="329.04385964912285" stroke="none" fill="#009677" rx="4.289473684210526" transform="rotate(45, 586.6666666666666, 333.33333333333337)"></rect><rect width="8.578947368421051" height="26.666666666666668" x="582.3771929824561" y="320.00000000000006" stroke="none" fill="#009677" rx="4.289473684210526" transform="rotate(45, 586.6666666666666, 333.33333333333337)"></rect><rect width="26.666666666666668" height="8.578947368421051" x="626.6666666666666" y="329.04385964912285" stroke="none" fill="#009677" rx="4.289473684210526" transform="rotate(45, 640, 333.33333333333337)"></rect><rect width="8.578947368421051" height="26.666666666666668" x="635.7105263157895" y="320.00000000000006" stroke="none" fill="#009677" rx="4.289473684210526" transform="rotate(45, 640, 333.33333333333337)"></rect><rect width="26.666666666666668" height="8.578947368421051" x="680" y="329.04385964912285" stroke="none" fill="#009677" rx="4.289473684210526" transform="rotate(45, 693.3333333333334, 333.33333333333337)"></rect><rect width="8.578947368421051" height="26.666666666666668" x="689.0438596491229" y="320.00000000000006" stroke="none" fill="#009677" rx="4.289473684210526" transform="rotate(45, 693.3333333333334, 333.33333333333337)"></rect><rect width="26.666666666666668" height="8.578947368421051" x="733.3333333333334" y="329.04385964912285" stroke="none" fill="#009677" rx="4.289473684210526" transform="rotate(45, 746.6666666666667, 333.33333333333337)"></rect><rect width="8.578947368421051" height="26.666666666666668" x="742.3771929824562" y="320.00000000000006" stroke="none" fill="#009677" rx="4.289473684210526" transform="rotate(45, 746.6666666666667, 333.33333333333337)"></rect><rect width="26.666666666666668" height="8.578947368421051" x="786.6666666666667" y="329.04385964912285" stroke="none" fill="#009677" rx="4.289473684210526" transform="rotate(45, 800.0000000000001, 333.33333333333337)"></rect><rect width="8.578947368421051" height="26.666666666666668" x="795.7105263157896" y="320.00000000000006" stroke="none" fill="#009677" rx="4.289473684210526" transform="rotate(45, 800.0000000000001, 333.33333333333337)"></rect><rect width="26.666666666666668" height="8.578947368421051" x="-13.333333333333334" y="395.71052631578954" stroke="none" fill="#009677" rx="4.289473684210526" transform="rotate(45, 0, 400.00000000000006)"></rect><rect width="8.578947368421051" height="26.666666666666668" x="-4.289473684210526" y="386.66666666666674" stroke="none" fill="#009677" rx="4.289473684210526" transform="rotate(45, 0, 400.00000000000006)"></rect><rect width="26.666666666666668" height="8.578947368421051" x="40" y="395.71052631578954" stroke="none" fill="#009677" rx="4.289473684210526" transform="rotate(45, 53.333333333333336, 400.00000000000006)"></rect><rect width="8.578947368421051" height="26.666666666666668" x="49.04385964912281" y="386.66666666666674" stroke="none" fill="#009677" rx="4.289473684210526" transform="rotate(45, 53.333333333333336, 400.00000000000006)"></rect><rect width="26.666666666666668" height="8.578947368421051" x="93.33333333333334" y="395.71052631578954" stroke="none" fill="#009677" rx="4.289473684210526" transform="rotate(45, 106.66666666666667, 400.00000000000006)"></rect><rect width="8.578947368421051" height="26.666666666666668" x="102.37719298245615" y="386.66666666666674" stroke="none" fill="#009677" rx="4.289473684210526" transform="rotate(45, 106.66666666666667, 400.00000000000006)"></rect><rect width="26.666666666666668" height="8.578947368421051" x="146.66666666666666" y="395.71052631578954" stroke="none" fill="#009677" rx="4.289473684210526" transform="rotate(45, 160, 400.00000000000006)"></rect><rect width="8.578947368421051" height="26.666666666666668" x="155.71052631578948" y="386.66666666666674" stroke="none" fill="#009677" rx="4.289473684210526" transform="rotate(45, 160, 400.00000000000006)"></rect><rect width="26.666666666666668" height="8.578947368421051" x="200" y="395.71052631578954" stroke="none" fill="#009677" rx="4.289473684210526" transform="rotate(45, 213.33333333333334, 400.00000000000006)"></rect><rect width="8.578947368421051" height="26.666666666666668" x="209.04385964912282" y="386.66666666666674" stroke="none" fill="#009677" rx="4.289473684210526" transform="rotate(45, 213.33333333333334, 400.00000000000006)"></rect><rect width="26.666666666666668" height="8.578947368421051" x="253.33333333333334" y="395.71052631578954" stroke="none" fill="#009677" rx="4.289473684210526" transform="rotate(45, 266.6666666666667, 400.00000000000006)"></rect><rect width="8.578947368421051" height="26.666666666666668" x="262.37719298245617" y="386.66666666666674" stroke="none" fill="#009677" rx="4.289473684210526" transform="rotate(45, 266.6666666666667, 400.00000000000006)"></rect><rect width="26.666666666666668" height="8.578947368421051" x="306.6666666666667" y="395.71052631578954" stroke="none" fill="#009677" rx="4.289473684210526" transform="rotate(45, 320, 400.00000000000006)"></rect><rect width="8.578947368421051" height="26.666666666666668" x="315.7105263157895" y="386.66666666666674" stroke="none" fill="#009677" rx="4.289473684210526" transform="rotate(45, 320, 400.00000000000006)"></rect><rect width="26.666666666666668" height="8.578947368421051" x="360" y="395.71052631578954" stroke="none" fill="#009677" rx="4.289473684210526" transform="rotate(45, 373.3333333333333, 400.00000000000006)"></rect><rect width="8.578947368421051" height="26.666666666666668" x="369.0438596491228" y="386.66666666666674" stroke="none" fill="#009677" rx="4.289473684210526" transform="rotate(45, 373.3333333333333, 400.00000000000006)"></rect><rect width="26.666666666666668" height="8.578947368421051" x="413.3333333333333" y="395.71052631578954" stroke="none" fill="#009677" rx="4.289473684210526" transform="rotate(45, 426.66666666666663, 400.00000000000006)"></rect><rect width="8.578947368421051" height="26.666666666666668" x="422.3771929824561" y="386.66666666666674" stroke="none" fill="#009677" rx="4.289473684210526" transform="rotate(45, 426.66666666666663, 400.00000000000006)"></rect><rect width="26.666666666666668" height="8.578947368421051" x="466.66666666666663" y="395.71052631578954" stroke="none" fill="#009677" rx="4.289473684210526" transform="rotate(45, 479.99999999999994, 400.00000000000006)"></rect><rect width="8.578947368421051" height="26.666666666666668" x="475.7105263157894" y="386.66666666666674" stroke="none" fill="#009677" rx="4.289473684210526" transform="rotate(45, 479.99999999999994, 400.00000000000006)"></rect><rect width="26.666666666666668" height="8.578947368421051" x="519.9999999999999" y="395.71052631578954" stroke="none" fill="#009677" rx="4.289473684210526" transform="rotate(45, 533.3333333333333, 400.00000000000006)"></rect><rect width="8.578947368421051" height="26.666666666666668" x="529.0438596491227" y="386.66666666666674" stroke="none" fill="#009677" rx="4.289473684210526" transform="rotate(45, 533.3333333333333, 400.00000000000006)"></rect><rect width="26.666666666666668" height="8.578947368421051" x="573.3333333333333" y="395.71052631578954" stroke="none" fill="#009677" rx="4.289473684210526" transform="rotate(45, 586.6666666666666, 400.00000000000006)"></rect><rect width="8.578947368421051" height="26.666666666666668" x="582.3771929824561" y="386.66666666666674" stroke="none" fill="#009677" rx="4.289473684210526" transform="rotate(45, 586.6666666666666, 400.00000000000006)"></rect><rect width="26.666666666666668" height="8.578947368421051" x="626.6666666666666" y="395.71052631578954" stroke="none" fill="#009677" rx="4.289473684210526" transform="rotate(45, 640, 400.00000000000006)"></rect><rect width="8.578947368421051" height="26.666666666666668" x="635.7105263157895" y="386.66666666666674" stroke="none" fill="#009677" rx="4.289473684210526" transform="rotate(45, 640, 400.00000000000006)"></rect><rect width="26.666666666666668" height="8.578947368421051" x="680" y="395.71052631578954" stroke="none" fill="#009677" rx="4.289473684210526" transform="rotate(45, 693.3333333333334, 400.00000000000006)"></rect><rect width="8.578947368421051" height="26.666666666666668" x="689.0438596491229" y="386.66666666666674" stroke="none" fill="#009677" rx="4.289473684210526" transform="rotate(45, 693.3333333333334, 400.00000000000006)"></rect><rect width="26.666666666666668" height="8.578947368421051" x="733.3333333333334" y="395.71052631578954" stroke="none" fill="#009677" rx="4.289473684210526" transform="rotate(45, 746.6666666666667, 400.00000000000006)"></rect><rect width="8.578947368421051" height="26.666666666666668" x="742.3771929824562" y="386.66666666666674" stroke="none" fill="#009677" rx="4.289473684210526" transform="rotate(45, 746.6666666666667, 400.00000000000006)"></rect><rect width="26.666666666666668" height="8.578947368421051" x="786.6666666666667" y="395.71052631578954" stroke="none" fill="#009677" rx="4.289473684210526" transform="rotate(45, 800.0000000000001, 400.00000000000006)"></rect><rect width="8.578947368421051" height="26.666666666666668" x="795.7105263157896" y="386.66666666666674" stroke="none" fill="#009677" rx="4.289473684210526" transform="rotate(45, 800.0000000000001, 400.00000000000006)"></rect><rect width="26.666666666666668" height="8.578947368421051" x="-13.333333333333334" y="462.3771929824562" stroke="none" fill="#009677" rx="4.289473684210526" transform="rotate(45, 0, 466.66666666666674)"></rect><rect width="8.578947368421051" height="26.666666666666668" x="-4.289473684210526" y="453.3333333333334" stroke="none" fill="#009677" rx="4.289473684210526" transform="rotate(45, 0, 466.66666666666674)"></rect><rect width="26.666666666666668" height="8.578947368421051" x="40" y="462.3771929824562" stroke="none" fill="#009677" rx="4.289473684210526" transform="rotate(45, 53.333333333333336, 466.66666666666674)"></rect><rect width="8.578947368421051" height="26.666666666666668" x="49.04385964912281" y="453.3333333333334" stroke="none" fill="#009677" rx="4.289473684210526" transform="rotate(45, 53.333333333333336, 466.66666666666674)"></rect><rect width="26.666666666666668" height="8.578947368421051" x="93.33333333333334" y="462.3771929824562" stroke="none" fill="#009677" rx="4.289473684210526" transform="rotate(45, 106.66666666666667, 466.66666666666674)"></rect><rect width="8.578947368421051" height="26.666666666666668" x="102.37719298245615" y="453.3333333333334" stroke="none" fill="#009677" rx="4.289473684210526" transform="rotate(45, 106.66666666666667, 466.66666666666674)"></rect><rect width="26.666666666666668" height="8.578947368421051" x="146.66666666666666" y="462.3771929824562" stroke="none" fill="#009677" rx="4.289473684210526" transform="rotate(45, 160, 466.66666666666674)"></rect><rect width="8.578947368421051" height="26.666666666666668" x="155.71052631578948" y="453.3333333333334" stroke="none" fill="#009677" rx="4.289473684210526" transform="rotate(45, 160, 466.66666666666674)"></rect><rect width="26.666666666666668" height="8.578947368421051" x="200" y="462.3771929824562" stroke="none" fill="#009677" rx="4.289473684210526" transform="rotate(45, 213.33333333333334, 466.66666666666674)"></rect><rect width="8.578947368421051" height="26.666666666666668" x="209.04385964912282" y="453.3333333333334" stroke="none" fill="#009677" rx="4.289473684210526" transform="rotate(45, 213.33333333333334, 466.66666666666674)"></rect><rect width="26.666666666666668" height="8.578947368421051" x="253.33333333333334" y="462.3771929824562" stroke="none" fill="#009677" rx="4.289473684210526" transform="rotate(45, 266.6666666666667, 466.66666666666674)"></rect><rect width="8.578947368421051" height="26.666666666666668" x="262.37719298245617" y="453.3333333333334" stroke="none" fill="#009677" rx="4.289473684210526" transform="rotate(45, 266.6666666666667, 466.66666666666674)"></rect><rect width="26.666666666666668" height="8.578947368421051" x="306.6666666666667" y="462.3771929824562" stroke="none" fill="#009677" rx="4.289473684210526" transform="rotate(45, 320, 466.66666666666674)"></rect><rect width="8.578947368421051" height="26.666666666666668" x="315.7105263157895" y="453.3333333333334" stroke="none" fill="#009677" rx="4.289473684210526" transform="rotate(45, 320, 466.66666666666674)"></rect><rect width="26.666666666666668" height="8.578947368421051" x="360" y="462.3771929824562" stroke="none" fill="#009677" rx="4.289473684210526" transform="rotate(45, 373.3333333333333, 466.66666666666674)"></rect><rect width="8.578947368421051" height="26.666666666666668" x="369.0438596491228" y="453.3333333333334" stroke="none" fill="#009677" rx="4.289473684210526" transform="rotate(45, 373.3333333333333, 466.66666666666674)"></rect><rect width="26.666666666666668" height="8.578947368421051" x="413.3333333333333" y="462.3771929824562" stroke="none" fill="#009677" rx="4.289473684210526" transform="rotate(45, 426.66666666666663, 466.66666666666674)"></rect><rect width="8.578947368421051" height="26.666666666666668" x="422.3771929824561" y="453.3333333333334" stroke="none" fill="#009677" rx="4.289473684210526" transform="rotate(45, 426.66666666666663, 466.66666666666674)"></rect><rect width="26.666666666666668" height="8.578947368421051" x="466.66666666666663" y="462.3771929824562" stroke="none" fill="#009677" rx="4.289473684210526" transform="rotate(45, 479.99999999999994, 466.66666666666674)"></rect><rect width="8.578947368421051" height="26.666666666666668" x="475.7105263157894" y="453.3333333333334" stroke="none" fill="#009677" rx="4.289473684210526" transform="rotate(45, 479.99999999999994, 466.66666666666674)"></rect><rect width="26.666666666666668" height="8.578947368421051" x="519.9999999999999" y="462.3771929824562" stroke="none" fill="#009677" rx="4.289473684210526" transform="rotate(45, 533.3333333333333, 466.66666666666674)"></rect><rect width="8.578947368421051" height="26.666666666666668" x="529.0438596491227" y="453.3333333333334" stroke="none" fill="#009677" rx="4.289473684210526" transform="rotate(45, 533.3333333333333, 466.66666666666674)"></rect><rect width="26.666666666666668" height="8.578947368421051" x="573.3333333333333" y="462.3771929824562" stroke="none" fill="#009677" rx="4.289473684210526" transform="rotate(45, 586.6666666666666, 466.66666666666674)"></rect><rect width="8.578947368421051" height="26.666666666666668" x="582.3771929824561" y="453.3333333333334" stroke="none" fill="#009677" rx="4.289473684210526" transform="rotate(45, 586.6666666666666, 466.66666666666674)"></rect><rect width="26.666666666666668" height="8.578947368421051" x="626.6666666666666" y="462.3771929824562" stroke="none" fill="#009677" rx="4.289473684210526" transform="rotate(45, 640, 466.66666666666674)"></rect><rect width="8.578947368421051" height="26.666666666666668" x="635.7105263157895" y="453.3333333333334" stroke="none" fill="#009677" rx="4.289473684210526" transform="rotate(45, 640, 466.66666666666674)"></rect><rect width="26.666666666666668" height="8.578947368421051" x="680" y="462.3771929824562" stroke="none" fill="#009677" rx="4.289473684210526" transform="rotate(45, 693.3333333333334, 466.66666666666674)"></rect><rect width="8.578947368421051" height="26.666666666666668" x="689.0438596491229" y="453.3333333333334" stroke="none" fill="#009677" rx="4.289473684210526" transform="rotate(45, 693.3333333333334, 466.66666666666674)"></rect><rect width="26.666666666666668" height="8.578947368421051" x="733.3333333333334" y="462.3771929824562" stroke="none" fill="#009677" rx="4.289473684210526" transform="rotate(45, 746.6666666666667, 466.66666666666674)"></rect><rect width="8.578947368421051" height="26.666666666666668" x="742.3771929824562" y="453.3333333333334" stroke="none" fill="#009677" rx="4.289473684210526" transform="rotate(45, 746.6666666666667, 466.66666666666674)"></rect><rect width="26.666666666666668" height="8.578947368421051" x="786.6666666666667" y="462.3771929824562" stroke="none" fill="#009677" rx="4.289473684210526" transform="rotate(45, 800.0000000000001, 466.66666666666674)"></rect><rect width="8.578947368421051" height="26.666666666666668" x="795.7105263157896" y="453.3333333333334" stroke="none" fill="#009677" rx="4.289473684210526" transform="rotate(45, 800.0000000000001, 466.66666666666674)"></rect><rect width="26.666666666666668" height="8.578947368421051" x="-13.333333333333334" y="529.0438596491229" stroke="none" fill="#009677" rx="4.289473684210526" transform="rotate(45, 0, 533.3333333333334)"></rect><rect width="8.578947368421051" height="26.666666666666668" x="-4.289473684210526" y="520" stroke="none" fill="#009677" rx="4.289473684210526" transform="rotate(45, 0, 533.3333333333334)"></rect><rect width="26.666666666666668" height="8.578947368421051" x="40" y="529.0438596491229" stroke="none" fill="#009677" rx="4.289473684210526" transform="rotate(45, 53.333333333333336, 533.3333333333334)"></rect><rect width="8.578947368421051" height="26.666666666666668" x="49.04385964912281" y="520" stroke="none" fill="#009677" rx="4.289473684210526" transform="rotate(45, 53.333333333333336, 533.3333333333334)"></rect><rect width="26.666666666666668" height="8.578947368421051" x="93.33333333333334" y="529.0438596491229" stroke="none" fill="#009677" rx="4.289473684210526" transform="rotate(45, 106.66666666666667, 533.3333333333334)"></rect><rect width="8.578947368421051" height="26.666666666666668" x="102.37719298245615" y="520" stroke="none" fill="#009677" rx="4.289473684210526" transform="rotate(45, 106.66666666666667, 533.3333333333334)"></rect><rect width="26.666666666666668" height="8.578947368421051" x="146.66666666666666" y="529.0438596491229" stroke="none" fill="#009677" rx="4.289473684210526" transform="rotate(45, 160, 533.3333333333334)"></rect><rect width="8.578947368421051" height="26.666666666666668" x="155.71052631578948" y="520" stroke="none" fill="#009677" rx="4.289473684210526" transform="rotate(45, 160, 533.3333333333334)"></rect><rect width="26.666666666666668" height="8.578947368421051" x="200" y="529.0438596491229" stroke="none" fill="#009677" rx="4.289473684210526" transform="rotate(45, 213.33333333333334, 533.3333333333334)"></rect><rect width="8.578947368421051" height="26.666666666666668" x="209.04385964912282" y="520" stroke="none" fill="#009677" rx="4.289473684210526" transform="rotate(45, 213.33333333333334, 533.3333333333334)"></rect><rect width="26.666666666666668" height="8.578947368421051" x="253.33333333333334" y="529.0438596491229" stroke="none" fill="#009677" rx="4.289473684210526" transform="rotate(45, 266.6666666666667, 533.3333333333334)"></rect><rect width="8.578947368421051" height="26.666666666666668" x="262.37719298245617" y="520" stroke="none" fill="#009677" rx="4.289473684210526" transform="rotate(45, 266.6666666666667, 533.3333333333334)"></rect><rect width="26.666666666666668" height="8.578947368421051" x="306.6666666666667" y="529.0438596491229" stroke="none" fill="#009677" rx="4.289473684210526" transform="rotate(45, 320, 533.3333333333334)"></rect><rect width="8.578947368421051" height="26.666666666666668" x="315.7105263157895" y="520" stroke="none" fill="#009677" rx="4.289473684210526" transform="rotate(45, 320, 533.3333333333334)"></rect><rect width="26.666666666666668" height="8.578947368421051" x="360" y="529.0438596491229" stroke="none" fill="#009677" rx="4.289473684210526" transform="rotate(45, 373.3333333333333, 533.3333333333334)"></rect><rect width="8.578947368421051" height="26.666666666666668" x="369.0438596491228" y="520" stroke="none" fill="#009677" rx="4.289473684210526" transform="rotate(45, 373.3333333333333, 533.3333333333334)"></rect><rect width="26.666666666666668" height="8.578947368421051" x="413.3333333333333" y="529.0438596491229" stroke="none" fill="#009677" rx="4.289473684210526" transform="rotate(45, 426.66666666666663, 533.3333333333334)"></rect><rect width="8.578947368421051" height="26.666666666666668" x="422.3771929824561" y="520" stroke="none" fill="#009677" rx="4.289473684210526" transform="rotate(45, 426.66666666666663, 533.3333333333334)"></rect><rect width="26.666666666666668" height="8.578947368421051" x="466.66666666666663" y="529.0438596491229" stroke="none" fill="#009677" rx="4.289473684210526" transform="rotate(45, 479.99999999999994, 533.3333333333334)"></rect><rect width="8.578947368421051" height="26.666666666666668" x="475.7105263157894" y="520" stroke="none" fill="#009677" rx="4.289473684210526" transform="rotate(45, 479.99999999999994, 533.3333333333334)"></rect><rect width="26.666666666666668" height="8.578947368421051" x="519.9999999999999" y="529.0438596491229" stroke="none" fill="#009677" rx="4.289473684210526" transform="rotate(45, 533.3333333333333, 533.3333333333334)"></rect><rect width="8.578947368421051" height="26.666666666666668" x="529.0438596491227" y="520" stroke="none" fill="#009677" rx="4.289473684210526" transform="rotate(45, 533.3333333333333, 533.3333333333334)"></rect><rect width="26.666666666666668" height="8.578947368421051" x="573.3333333333333" y="529.0438596491229" stroke="none" fill="#009677" rx="4.289473684210526" transform="rotate(45, 586.6666666666666, 533.3333333333334)"></rect><rect width="8.578947368421051" height="26.666666666666668" x="582.3771929824561" y="520" stroke="none" fill="#009677" rx="4.289473684210526" transform="rotate(45, 586.6666666666666, 533.3333333333334)"></rect><rect width="26.666666666666668" height="8.578947368421051" x="626.6666666666666" y="529.0438596491229" stroke="none" fill="#009677" rx="4.289473684210526" transform="rotate(45, 640, 533.3333333333334)"></rect><rect width="8.578947368421051" height="26.666666666666668" x="635.7105263157895" y="520" stroke="none" fill="#009677" rx="4.289473684210526" transform="rotate(45, 640, 533.3333333333334)"></rect><rect width="26.666666666666668" height="8.578947368421051" x="680" y="529.0438596491229" stroke="none" fill="#009677" rx="4.289473684210526" transform="rotate(45, 693.3333333333334, 533.3333333333334)"></rect><rect width="8.578947368421051" height="26.666666666666668" x="689.0438596491229" y="520" stroke="none" fill="#009677" rx="4.289473684210526" transform="rotate(45, 693.3333333333334, 533.3333333333334)"></rect><rect width="26.666666666666668" height="8.578947368421051" x="733.3333333333334" y="529.0438596491229" stroke="none" fill="#009677" rx="4.289473684210526" transform="rotate(45, 746.6666666666667, 533.3333333333334)"></rect><rect width="8.578947368421051" height="26.666666666666668" x="742.3771929824562" y="520" stroke="none" fill="#009677" rx="4.289473684210526" transform="rotate(45, 746.6666666666667, 533.3333333333334)"></rect><rect width="26.666666666666668" height="8.578947368421051" x="786.6666666666667" y="529.0438596491229" stroke="none" fill="#009677" rx="4.289473684210526" transform="rotate(45, 800.0000000000001, 533.3333333333334)"></rect><rect width="8.578947368421051" height="26.666666666666668" x="795.7105263157896" y="520" stroke="none" fill="#009677" rx="4.289473684210526" transform="rotate(45, 800.0000000000001, 533.3333333333334)"></rect><rect width="26.666666666666668" height="8.578947368421051" x="-13.333333333333334" y="595.7105263157895" stroke="none" fill="#009677" rx="4.289473684210526" transform="rotate(45, 0, 600)"></rect><rect width="8.578947368421051" height="26.666666666666668" x="-4.289473684210526" y="586.6666666666666" stroke="none" fill="#009677" rx="4.289473684210526" transform="rotate(45, 0, 600)"></rect><rect width="26.666666666666668" height="8.578947368421051" x="40" y="595.7105263157895" stroke="none" fill="#009677" rx="4.289473684210526" transform="rotate(45, 53.333333333333336, 600)"></rect><rect width="8.578947368421051" height="26.666666666666668" x="49.04385964912281" y="586.6666666666666" stroke="none" fill="#009677" rx="4.289473684210526" transform="rotate(45, 53.333333333333336, 600)"></rect><rect width="26.666666666666668" height="8.578947368421051" x="93.33333333333334" y="595.7105263157895" stroke="none" fill="#009677" rx="4.289473684210526" transform="rotate(45, 106.66666666666667, 600)"></rect><rect width="8.578947368421051" height="26.666666666666668" x="102.37719298245615" y="586.6666666666666" stroke="none" fill="#009677" rx="4.289473684210526" transform="rotate(45, 106.66666666666667, 600)"></rect><rect width="26.666666666666668" height="8.578947368421051" x="146.66666666666666" y="595.7105263157895" stroke="none" fill="#009677" rx="4.289473684210526" transform="rotate(45, 160, 600)"></rect><rect width="8.578947368421051" height="26.666666666666668" x="155.71052631578948" y="586.6666666666666" stroke="none" fill="#009677" rx="4.289473684210526" transform="rotate(45, 160, 600)"></rect><rect width="26.666666666666668" height="8.578947368421051" x="200" y="595.7105263157895" stroke="none" fill="#009677" rx="4.289473684210526" transform="rotate(45, 213.33333333333334, 600)"></rect><rect width="8.578947368421051" height="26.666666666666668" x="209.04385964912282" y="586.6666666666666" stroke="none" fill="#009677" rx="4.289473684210526" transform="rotate(45, 213.33333333333334, 600)"></rect><rect width="26.666666666666668" height="8.578947368421051" x="253.33333333333334" y="595.7105263157895" stroke="none" fill="#009677" rx="4.289473684210526" transform="rotate(45, 266.6666666666667, 600)"></rect><rect width="8.578947368421051" height="26.666666666666668" x="262.37719298245617" y="586.6666666666666" stroke="none" fill="#009677" rx="4.289473684210526" transform="rotate(45, 266.6666666666667, 600)"></rect><rect width="26.666666666666668" height="8.578947368421051" x="306.6666666666667" y="595.7105263157895" stroke="none" fill="#009677" rx="4.289473684210526" transform="rotate(45, 320, 600)"></rect><rect width="8.578947368421051" height="26.666666666666668" x="315.7105263157895" y="586.6666666666666" stroke="none" fill="#009677" rx="4.289473684210526" transform="rotate(45, 320, 600)"></rect><rect width="26.666666666666668" height="8.578947368421051" x="360" y="595.7105263157895" stroke="none" fill="#009677" rx="4.289473684210526" transform="rotate(45, 373.3333333333333, 600)"></rect><rect width="8.578947368421051" height="26.666666666666668" x="369.0438596491228" y="586.6666666666666" stroke="none" fill="#009677" rx="4.289473684210526" transform="rotate(45, 373.3333333333333, 600)"></rect><rect width="26.666666666666668" height="8.578947368421051" x="413.3333333333333" y="595.7105263157895" stroke="none" fill="#009677" rx="4.289473684210526" transform="rotate(45, 426.66666666666663, 600)"></rect><rect width="8.578947368421051" height="26.666666666666668" x="422.3771929824561" y="586.6666666666666" stroke="none" fill="#009677" rx="4.289473684210526" transform="rotate(45, 426.66666666666663, 600)"></rect><rect width="26.666666666666668" height="8.578947368421051" x="466.66666666666663" y="595.7105263157895" stroke="none" fill="#009677" rx="4.289473684210526" transform="rotate(45, 479.99999999999994, 600)"></rect><rect width="8.578947368421051" height="26.666666666666668" x="475.7105263157894" y="586.6666666666666" stroke="none" fill="#009677" rx="4.289473684210526" transform="rotate(45, 479.99999999999994, 600)"></rect><rect width="26.666666666666668" height="8.578947368421051" x="519.9999999999999" y="595.7105263157895" stroke="none" fill="#009677" rx="4.289473684210526" transform="rotate(45, 533.3333333333333, 600)"></rect><rect width="8.578947368421051" height="26.666666666666668" x="529.0438596491227" y="586.6666666666666" stroke="none" fill="#009677" rx="4.289473684210526" transform="rotate(45, 533.3333333333333, 600)"></rect><rect width="26.666666666666668" height="8.578947368421051" x="573.3333333333333" y="595.7105263157895" stroke="none" fill="#009677" rx="4.289473684210526" transform="rotate(45, 586.6666666666666, 600)"></rect><rect width="8.578947368421051" height="26.666666666666668" x="582.3771929824561" y="586.6666666666666" stroke="none" fill="#009677" rx="4.289473684210526" transform="rotate(45, 586.6666666666666, 600)"></rect><rect width="26.666666666666668" height="8.578947368421051" x="626.6666666666666" y="595.7105263157895" stroke="none" fill="#009677" rx="4.289473684210526" transform="rotate(45, 640, 600)"></rect><rect width="8.578947368421051" height="26.666666666666668" x="635.7105263157895" y="586.6666666666666" stroke="none" fill="#009677" rx="4.289473684210526" transform="rotate(45, 640, 600)"></rect><rect width="26.666666666666668" height="8.578947368421051" x="680" y="595.7105263157895" stroke="none" fill="#009677" rx="4.289473684210526" transform="rotate(45, 693.3333333333334, 600)"></rect><rect width="8.578947368421051" height="26.666666666666668" x="689.0438596491229" y="586.6666666666666" stroke="none" fill="#009677" rx="4.289473684210526" transform="rotate(45, 693.3333333333334, 600)"></rect><rect width="26.666666666666668" height="8.578947368421051" x="733.3333333333334" y="595.7105263157895" stroke="none" fill="#009677" rx="4.289473684210526" transform="rotate(45, 746.6666666666667, 600)"></rect><rect width="8.578947368421051" height="26.666666666666668" x="742.3771929824562" y="586.6666666666666" stroke="none" fill="#009677" rx="4.289473684210526" transform="rotate(45, 746.6666666666667, 600)"></rect><rect width="26.666666666666668" height="8.578947368421051" x="786.6666666666667" y="595.7105263157895" stroke="none" fill="#009677" rx="4.289473684210526" transform="rotate(45, 800.0000000000001, 600)"></rect><rect width="8.578947368421051" height="26.666666666666668" x="795.7105263157896" y="586.6666666666666" stroke="none" fill="#009677" rx="4.289473684210526" transform="rotate(45, 800.0000000000001, 600)"></rect><rect width="26.666666666666668" height="8.578947368421051" x="-13.333333333333334" y="662.3771929824561" stroke="none" fill="#009677" rx="4.289473684210526" transform="rotate(45, 0, 666.6666666666666)"></rect><rect width="8.578947368421051" height="26.666666666666668" x="-4.289473684210526" y="653.3333333333333" stroke="none" fill="#009677" rx="4.289473684210526" transform="rotate(45, 0, 666.6666666666666)"></rect><rect width="26.666666666666668" height="8.578947368421051" x="40" y="662.3771929824561" stroke="none" fill="#009677" rx="4.289473684210526" transform="rotate(45, 53.333333333333336, 666.6666666666666)"></rect><rect width="8.578947368421051" height="26.666666666666668" x="49.04385964912281" y="653.3333333333333" stroke="none" fill="#009677" rx="4.289473684210526" transform="rotate(45, 53.333333333333336, 666.6666666666666)"></rect><rect width="26.666666666666668" height="8.578947368421051" x="93.33333333333334" y="662.3771929824561" stroke="none" fill="#009677" rx="4.289473684210526" transform="rotate(45, 106.66666666666667, 666.6666666666666)"></rect><rect width="8.578947368421051" height="26.666666666666668" x="102.37719298245615" y="653.3333333333333" stroke="none" fill="#009677" rx="4.289473684210526" transform="rotate(45, 106.66666666666667, 666.6666666666666)"></rect><rect width="26.666666666666668" height="8.578947368421051" x="146.66666666666666" y="662.3771929824561" stroke="none" fill="#009677" rx="4.289473684210526" transform="rotate(45, 160, 666.6666666666666)"></rect><rect width="8.578947368421051" height="26.666666666666668" x="155.71052631578948" y="653.3333333333333" stroke="none" fill="#009677" rx="4.289473684210526" transform="rotate(45, 160, 666.6666666666666)"></rect><rect width="26.666666666666668" height="8.578947368421051" x="200" y="662.3771929824561" stroke="none" fill="#009677" rx="4.289473684210526" transform="rotate(45, 213.33333333333334, 666.6666666666666)"></rect><rect width="8.578947368421051" height="26.666666666666668" x="209.04385964912282" y="653.3333333333333" stroke="none" fill="#009677" rx="4.289473684210526" transform="rotate(45, 213.33333333333334, 666.6666666666666)"></rect><rect width="26.666666666666668" height="8.578947368421051" x="253.33333333333334" y="662.3771929824561" stroke="none" fill="#009677" rx="4.289473684210526" transform="rotate(45, 266.6666666666667, 666.6666666666666)"></rect><rect width="8.578947368421051" height="26.666666666666668" x="262.37719298245617" y="653.3333333333333" stroke="none" fill="#009677" rx="4.289473684210526" transform="rotate(45, 266.6666666666667, 666.6666666666666)"></rect><rect width="26.666666666666668" height="8.578947368421051" x="306.6666666666667" y="662.3771929824561" stroke="none" fill="#009677" rx="4.289473684210526" transform="rotate(45, 320, 666.6666666666666)"></rect><rect width="8.578947368421051" height="26.666666666666668" x="315.7105263157895" y="653.3333333333333" stroke="none" fill="#009677" rx="4.289473684210526" transform="rotate(45, 320, 666.6666666666666)"></rect><rect width="26.666666666666668" height="8.578947368421051" x="360" y="662.3771929824561" stroke="none" fill="#009677" rx="4.289473684210526" transform="rotate(45, 373.3333333333333, 666.6666666666666)"></rect><rect width="8.578947368421051" height="26.666666666666668" x="369.0438596491228" y="653.3333333333333" stroke="none" fill="#009677" rx="4.289473684210526" transform="rotate(45, 373.3333333333333, 666.6666666666666)"></rect><rect width="26.666666666666668" height="8.578947368421051" x="413.3333333333333" y="662.3771929824561" stroke="none" fill="#009677" rx="4.289473684210526" transform="rotate(45, 426.66666666666663, 666.6666666666666)"></rect><rect width="8.578947368421051" height="26.666666666666668" x="422.3771929824561" y="653.3333333333333" stroke="none" fill="#009677" rx="4.289473684210526" transform="rotate(45, 426.66666666666663, 666.6666666666666)"></rect><rect width="26.666666666666668" height="8.578947368421051" x="466.66666666666663" y="662.3771929824561" stroke="none" fill="#009677" rx="4.289473684210526" transform="rotate(45, 479.99999999999994, 666.6666666666666)"></rect><rect width="8.578947368421051" height="26.666666666666668" x="475.7105263157894" y="653.3333333333333" stroke="none" fill="#009677" rx="4.289473684210526" transform="rotate(45, 479.99999999999994, 666.6666666666666)"></rect><rect width="26.666666666666668" height="8.578947368421051" x="519.9999999999999" y="662.3771929824561" stroke="none" fill="#009677" rx="4.289473684210526" transform="rotate(45, 533.3333333333333, 666.6666666666666)"></rect><rect width="8.578947368421051" height="26.666666666666668" x="529.0438596491227" y="653.3333333333333" stroke="none" fill="#009677" rx="4.289473684210526" transform="rotate(45, 533.3333333333333, 666.6666666666666)"></rect><rect width="26.666666666666668" height="8.578947368421051" x="573.3333333333333" y="662.3771929824561" stroke="none" fill="#009677" rx="4.289473684210526" transform="rotate(45, 586.6666666666666, 666.6666666666666)"></rect><rect width="8.578947368421051" height="26.666666666666668" x="582.3771929824561" y="653.3333333333333" stroke="none" fill="#009677" rx="4.289473684210526" transform="rotate(45, 586.6666666666666, 666.6666666666666)"></rect><rect width="26.666666666666668" height="8.578947368421051" x="626.6666666666666" y="662.3771929824561" stroke="none" fill="#009677" rx="4.289473684210526" transform="rotate(45, 640, 666.6666666666666)"></rect><rect width="8.578947368421051" height="26.666666666666668" x="635.7105263157895" y="653.3333333333333" stroke="none" fill="#009677" rx="4.289473684210526" transform="rotate(45, 640, 666.6666666666666)"></rect><rect width="26.666666666666668" height="8.578947368421051" x="680" y="662.3771929824561" stroke="none" fill="#009677" rx="4.289473684210526" transform="rotate(45, 693.3333333333334, 666.6666666666666)"></rect><rect width="8.578947368421051" height="26.666666666666668" x="689.0438596491229" y="653.3333333333333" stroke="none" fill="#009677" rx="4.289473684210526" transform="rotate(45, 693.3333333333334, 666.6666666666666)"></rect><rect width="26.666666666666668" height="8.578947368421051" x="733.3333333333334" y="662.3771929824561" stroke="none" fill="#009677" rx="4.289473684210526" transform="rotate(45, 746.6666666666667, 666.6666666666666)"></rect><rect width="8.578947368421051" height="26.666666666666668" x="742.3771929824562" y="653.3333333333333" stroke="none" fill="#009677" rx="4.289473684210526" transform="rotate(45, 746.6666666666667, 666.6666666666666)"></rect><rect width="26.666666666666668" height="8.578947368421051" x="786.6666666666667" y="662.3771929824561" stroke="none" fill="#009677" rx="4.289473684210526" transform="rotate(45, 800.0000000000001, 666.6666666666666)"></rect><rect width="8.578947368421051" height="26.666666666666668" x="795.7105263157896" y="653.3333333333333" stroke="none" fill="#009677" rx="4.289473684210526" transform="rotate(45, 800.0000000000001, 666.6666666666666)"></rect><rect width="26.666666666666668" height="8.578947368421051" x="-13.333333333333334" y="729.0438596491227" stroke="none" fill="#009677" rx="4.289473684210526" transform="rotate(45, 0, 733.3333333333333)"></rect><rect width="8.578947368421051" height="26.666666666666668" x="-4.289473684210526" y="719.9999999999999" stroke="none" fill="#009677" rx="4.289473684210526" transform="rotate(45, 0, 733.3333333333333)"></rect><rect width="26.666666666666668" height="8.578947368421051" x="40" y="729.0438596491227" stroke="none" fill="#009677" rx="4.289473684210526" transform="rotate(45, 53.333333333333336, 733.3333333333333)"></rect><rect width="8.578947368421051" height="26.666666666666668" x="49.04385964912281" y="719.9999999999999" stroke="none" fill="#009677" rx="4.289473684210526" transform="rotate(45, 53.333333333333336, 733.3333333333333)"></rect><rect width="26.666666666666668" height="8.578947368421051" x="93.33333333333334" y="729.0438596491227" stroke="none" fill="#009677" rx="4.289473684210526" transform="rotate(45, 106.66666666666667, 733.3333333333333)"></rect><rect width="8.578947368421051" height="26.666666666666668" x="102.37719298245615" y="719.9999999999999" stroke="none" fill="#009677" rx="4.289473684210526" transform="rotate(45, 106.66666666666667, 733.3333333333333)"></rect><rect width="26.666666666666668" height="8.578947368421051" x="146.66666666666666" y="729.0438596491227" stroke="none" fill="#009677" rx="4.289473684210526" transform="rotate(45, 160, 733.3333333333333)"></rect><rect width="8.578947368421051" height="26.666666666666668" x="155.71052631578948" y="719.9999999999999" stroke="none" fill="#009677" rx="4.289473684210526" transform="rotate(45, 160, 733.3333333333333)"></rect><rect width="26.666666666666668" height="8.578947368421051" x="200" y="729.0438596491227" stroke="none" fill="#009677" rx="4.289473684210526" transform="rotate(45, 213.33333333333334, 733.3333333333333)"></rect><rect width="8.578947368421051" height="26.666666666666668" x="209.04385964912282" y="719.9999999999999" stroke="none" fill="#009677" rx="4.289473684210526" transform="rotate(45, 213.33333333333334, 733.3333333333333)"></rect><rect width="26.666666666666668" height="8.578947368421051" x="253.33333333333334" y="729.0438596491227" stroke="none" fill="#009677" rx="4.289473684210526" transform="rotate(45, 266.6666666666667, 733.3333333333333)"></rect><rect width="8.578947368421051" height="26.666666666666668" x="262.37719298245617" y="719.9999999999999" stroke="none" fill="#009677" rx="4.289473684210526" transform="rotate(45, 266.6666666666667, 733.3333333333333)"></rect><rect width="26.666666666666668" height="8.578947368421051" x="306.6666666666667" y="729.0438596491227" stroke="none" fill="#009677" rx="4.289473684210526" transform="rotate(45, 320, 733.3333333333333)"></rect><rect width="8.578947368421051" height="26.666666666666668" x="315.7105263157895" y="719.9999999999999" stroke="none" fill="#009677" rx="4.289473684210526" transform="rotate(45, 320, 733.3333333333333)"></rect><rect width="26.666666666666668" height="8.578947368421051" x="360" y="729.0438596491227" stroke="none" fill="#009677" rx="4.289473684210526" transform="rotate(45, 373.3333333333333, 733.3333333333333)"></rect><rect width="8.578947368421051" height="26.666666666666668" x="369.0438596491228" y="719.9999999999999" stroke="none" fill="#009677" rx="4.289473684210526" transform="rotate(45, 373.3333333333333, 733.3333333333333)"></rect><rect width="26.666666666666668" height="8.578947368421051" x="413.3333333333333" y="729.0438596491227" stroke="none" fill="#009677" rx="4.289473684210526" transform="rotate(45, 426.66666666666663, 733.3333333333333)"></rect><rect width="8.578947368421051" height="26.666666666666668" x="422.3771929824561" y="719.9999999999999" stroke="none" fill="#009677" rx="4.289473684210526" transform="rotate(45, 426.66666666666663, 733.3333333333333)"></rect><rect width="26.666666666666668" height="8.578947368421051" x="466.66666666666663" y="729.0438596491227" stroke="none" fill="#009677" rx="4.289473684210526" transform="rotate(45, 479.99999999999994, 733.3333333333333)"></rect><rect width="8.578947368421051" height="26.666666666666668" x="475.7105263157894" y="719.9999999999999" stroke="none" fill="#009677" rx="4.289473684210526" transform="rotate(45, 479.99999999999994, 733.3333333333333)"></rect><rect width="26.666666666666668" height="8.578947368421051" x="519.9999999999999" y="729.0438596491227" stroke="none" fill="#009677" rx="4.289473684210526" transform="rotate(45, 533.3333333333333, 733.3333333333333)"></rect><rect width="8.578947368421051" height="26.666666666666668" x="529.0438596491227" y="719.9999999999999" stroke="none" fill="#009677" rx="4.289473684210526" transform="rotate(45, 533.3333333333333, 733.3333333333333)"></rect><rect width="26.666666666666668" height="8.578947368421051" x="573.3333333333333" y="729.0438596491227" stroke="none" fill="#009677" rx="4.289473684210526" transform="rotate(45, 586.6666666666666, 733.3333333333333)"></rect><rect width="8.578947368421051" height="26.666666666666668" x="582.3771929824561" y="719.9999999999999" stroke="none" fill="#009677" rx="4.289473684210526" transform="rotate(45, 586.6666666666666, 733.3333333333333)"></rect><rect width="26.666666666666668" height="8.578947368421051" x="626.6666666666666" y="729.0438596491227" stroke="none" fill="#009677" rx="4.289473684210526" transform="rotate(45, 640, 733.3333333333333)"></rect><rect width="8.578947368421051" height="26.666666666666668" x="635.7105263157895" y="719.9999999999999" stroke="none" fill="#009677" rx="4.289473684210526" transform="rotate(45, 640, 733.3333333333333)"></rect><rect width="26.666666666666668" height="8.578947368421051" x="680" y="729.0438596491227" stroke="none" fill="#009677" rx="4.289473684210526" transform="rotate(45, 693.3333333333334, 733.3333333333333)"></rect><rect width="8.578947368421051" height="26.666666666666668" x="689.0438596491229" y="719.9999999999999" stroke="none" fill="#009677" rx="4.289473684210526" transform="rotate(45, 693.3333333333334, 733.3333333333333)"></rect><rect width="26.666666666666668" height="8.578947368421051" x="733.3333333333334" y="729.0438596491227" stroke="none" fill="#009677" rx="4.289473684210526" transform="rotate(45, 746.6666666666667, 733.3333333333333)"></rect><rect width="8.578947368421051" height="26.666666666666668" x="742.3771929824562" y="719.9999999999999" stroke="none" fill="#009677" rx="4.289473684210526" transform="rotate(45, 746.6666666666667, 733.3333333333333)"></rect><rect width="26.666666666666668" height="8.578947368421051" x="786.6666666666667" y="729.0438596491227" stroke="none" fill="#009677" rx="4.289473684210526" transform="rotate(45, 800.0000000000001, 733.3333333333333)"></rect><rect width="8.578947368421051" height="26.666666666666668" x="795.7105263157896" y="719.9999999999999" stroke="none" fill="#009677" rx="4.289473684210526" transform="rotate(45, 800.0000000000001, 733.3333333333333)"></rect><rect width="26.666666666666668" height="8.578947368421051" x="-13.333333333333334" y="795.7105263157894" stroke="none" fill="#009677" rx="4.289473684210526" transform="rotate(45, 0, 799.9999999999999)"></rect><rect width="8.578947368421051" height="26.666666666666668" x="-4.289473684210526" y="786.6666666666665" stroke="none" fill="#009677" rx="4.289473684210526" transform="rotate(45, 0, 799.9999999999999)"></rect><rect width="26.666666666666668" height="8.578947368421051" x="40" y="795.7105263157894" stroke="none" fill="#009677" rx="4.289473684210526" transform="rotate(45, 53.333333333333336, 799.9999999999999)"></rect><rect width="8.578947368421051" height="26.666666666666668" x="49.04385964912281" y="786.6666666666665" stroke="none" fill="#009677" rx="4.289473684210526" transform="rotate(45, 53.333333333333336, 799.9999999999999)"></rect><rect width="26.666666666666668" height="8.578947368421051" x="93.33333333333334" y="795.7105263157894" stroke="none" fill="#009677" rx="4.289473684210526" transform="rotate(45, 106.66666666666667, 799.9999999999999)"></rect><rect width="8.578947368421051" height="26.666666666666668" x="102.37719298245615" y="786.6666666666665" stroke="none" fill="#009677" rx="4.289473684210526" transform="rotate(45, 106.66666666666667, 799.9999999999999)"></rect><rect width="26.666666666666668" height="8.578947368421051" x="146.66666666666666" y="795.7105263157894" stroke="none" fill="#009677" rx="4.289473684210526" transform="rotate(45, 160, 799.9999999999999)"></rect><rect width="8.578947368421051" height="26.666666666666668" x="155.71052631578948" y="786.6666666666665" stroke="none" fill="#009677" rx="4.289473684210526" transform="rotate(45, 160, 799.9999999999999)"></rect><rect width="26.666666666666668" height="8.578947368421051" x="200" y="795.7105263157894" stroke="none" fill="#009677" rx="4.289473684210526" transform="rotate(45, 213.33333333333334, 799.9999999999999)"></rect><rect width="8.578947368421051" height="26.666666666666668" x="209.04385964912282" y="786.6666666666665" stroke="none" fill="#009677" rx="4.289473684210526" transform="rotate(45, 213.33333333333334, 799.9999999999999)"></rect><rect width="26.666666666666668" height="8.578947368421051" x="253.33333333333334" y="795.7105263157894" stroke="none" fill="#009677" rx="4.289473684210526" transform="rotate(45, 266.6666666666667, 799.9999999999999)"></rect><rect width="8.578947368421051" height="26.666666666666668" x="262.37719298245617" y="786.6666666666665" stroke="none" fill="#009677" rx="4.289473684210526" transform="rotate(45, 266.6666666666667, 799.9999999999999)"></rect><rect width="26.666666666666668" height="8.578947368421051" x="306.6666666666667" y="795.7105263157894" stroke="none" fill="#009677" rx="4.289473684210526" transform="rotate(45, 320, 799.9999999999999)"></rect><rect width="8.578947368421051" height="26.666666666666668" x="315.7105263157895" y="786.6666666666665" stroke="none" fill="#009677" rx="4.289473684210526" transform="rotate(45, 320, 799.9999999999999)"></rect><rect width="26.666666666666668" height="8.578947368421051" x="360" y="795.7105263157894" stroke="none" fill="#009677" rx="4.289473684210526" transform="rotate(45, 373.3333333333333, 799.9999999999999)"></rect><rect width="8.578947368421051" height="26.666666666666668" x="369.0438596491228" y="786.6666666666665" stroke="none" fill="#009677" rx="4.289473684210526" transform="rotate(45, 373.3333333333333, 799.9999999999999)"></rect><rect width="26.666666666666668" height="8.578947368421051" x="413.3333333333333" y="795.7105263157894" stroke="none" fill="#009677" rx="4.289473684210526" transform="rotate(45, 426.66666666666663, 799.9999999999999)"></rect><rect width="8.578947368421051" height="26.666666666666668" x="422.3771929824561" y="786.6666666666665" stroke="none" fill="#009677" rx="4.289473684210526" transform="rotate(45, 426.66666666666663, 799.9999999999999)"></rect><rect width="26.666666666666668" height="8.578947368421051" x="466.66666666666663" y="795.7105263157894" stroke="none" fill="#009677" rx="4.289473684210526" transform="rotate(45, 479.99999999999994, 799.9999999999999)"></rect><rect width="8.578947368421051" height="26.666666666666668" x="475.7105263157894" y="786.6666666666665" stroke="none" fill="#009677" rx="4.289473684210526" transform="rotate(45, 479.99999999999994, 799.9999999999999)"></rect><rect width="26.666666666666668" height="8.578947368421051" x="519.9999999999999" y="795.7105263157894" stroke="none" fill="#009677" rx="4.289473684210526" transform="rotate(45, 533.3333333333333, 799.9999999999999)"></rect><rect width="8.578947368421051" height="26.666666666666668" x="529.0438596491227" y="786.6666666666665" stroke="none" fill="#009677" rx="4.289473684210526" transform="rotate(45, 533.3333333333333, 799.9999999999999)"></rect><rect width="26.666666666666668" height="8.578947368421051" x="573.3333333333333" y="795.7105263157894" stroke="none" fill="#009677" rx="4.289473684210526" transform="rotate(45, 586.6666666666666, 799.9999999999999)"></rect><rect width="8.578947368421051" height="26.666666666666668" x="582.3771929824561" y="786.6666666666665" stroke="none" fill="#009677" rx="4.289473684210526" transform="rotate(45, 586.6666666666666, 799.9999999999999)"></rect><rect width="26.666666666666668" height="8.578947368421051" x="626.6666666666666" y="795.7105263157894" stroke="none" fill="#009677" rx="4.289473684210526" transform="rotate(45, 640, 799.9999999999999)"></rect><rect width="8.578947368421051" height="26.666666666666668" x="635.7105263157895" y="786.6666666666665" stroke="none" fill="#009677" rx="4.289473684210526" transform="rotate(45, 640, 799.9999999999999)"></rect><rect width="26.666666666666668" height="8.578947368421051" x="680" y="795.7105263157894" stroke="none" fill="#009677" rx="4.289473684210526" transform="rotate(45, 693.3333333333334, 799.9999999999999)"></rect><rect width="8.578947368421051" height="26.666666666666668" x="689.0438596491229" y="786.6666666666665" stroke="none" fill="#009677" rx="4.289473684210526" transform="rotate(45, 693.3333333333334, 799.9999999999999)"></rect><rect width="26.666666666666668" height="8.578947368421051" x="733.3333333333334" y="795.7105263157894" stroke="none" fill="#009677" rx="4.289473684210526" transform="rotate(45, 746.6666666666667, 799.9999999999999)"></rect><rect width="8.578947368421051" height="26.666666666666668" x="742.3771929824562" y="786.6666666666665" stroke="none" fill="#009677" rx="4.289473684210526" transform="rotate(45, 746.6666666666667, 799.9999999999999)"></rect><rect width="26.666666666666668" height="8.578947368421051" x="786.6666666666667" y="795.7105263157894" stroke="none" fill="#009677" rx="4.289473684210526" transform="rotate(45, 800.0000000000001, 799.9999999999999)"></rect><rect width="8.578947368421051" height="26.666666666666668" x="795.7105263157896" y="786.6666666666665" stroke="none" fill="#009677" rx="4.289473684210526" transform="rotate(45, 800.0000000000001, 799.9999999999999)"></rect></g></svg>